{
  "source": "C:\\Users\\Peter\\Desktop\\stuff\\MIUN\\quantitative_research\\video_compression\\videos\\UVG\\Bosphorus_1920x1080_120fps_420_8bit_YUV.y4m",
  "output": "C:\\Users\\Peter\\Desktop\\stuff\\MIUN\\quantitative_research\\video_compression\\compressed_videos\\UVG\\hevc\\1.5\\Bosphorus_1920x1080_120fps_420_8bit_YUV_hevc.mp4",
  "codec": "hevc",
  "ok": "[yuv4mpegpipe @ 000002b396ad6740] Stream #0: not enough frames to estimate rate; consider increasing probesize\nInput #0, yuv4mpegpipe, from 'C:\\Users\\Peter\\Desktop\\stuff\\MIUN\\quantitative_research\\video_compression\\videos\\UVG\\Bosphorus_1920x1080_120fps_420_8bit_YUV.y4m':\n  Duration: 00:00:05.00, start: 0.000000, bitrate: 2985989 kb/s\n  Stream #0:0: Video: rawvideo (I420 / 0x30323449), yuv420p(progressive), 1920x1080, 120 fps, 120 tbr, 120 tbn\n[out#0/mp4 @ 000002b396ad9ac0] Codec AVOption b:a (set bitrate (in bits/s)) has not been used for any stream. The most likely reason is either wrong type (e.g. a video option with no video streams) or that it is a private option of some decoder which was not actually used for any stream.\nStream mapping:\n  Stream #0:0 -> #0:0 (rawvideo (native) -> hevc (libx265))\nPress [q] to stop, [?] for help\n[libx265 @ 000002b396adcb00] Unknown option: \"aq-mode.\nx265 [info]: HEVC encoder version 4.1+190-8f11c33ac\nx265 [info]: build info [Windows][GCC 15.1.0][64 bit] 10bit\nx265 [info]: using cpu capabilities: MMX2 SSE2Fast LZCNT SSSE3 SSE4.2 AVX FMA3 BMI2 AVX2\nx265 [info]: Main 10 profile, Level-5 (Main tier)\nx265 [info]: Thread pool created using 12 threads\nx265 [info]: Slices                              : 1\nx265 [info]: frame threads / pool features       : 3 / wpp(17 rows)\nx265 [info]: Coding QT: max CU size, min CU size : 64 / 8\nx265 [info]: Residual QT: max TU size, max depth : 32 / 1 inter / 1 intra\nx265 [info]: ME / range / subpel / merge         : star / 57 / 3 / 3\nx265 [info]: Keyframe min / max / scenecut / bias  : 25 / 250 / 40 / 5.00 \nx265 [info]: Lookahead / bframes / badapt        : 25 / 4 / 2\nx265 [info]: b-pyramid / weightp / weightb       : 1 / 1 / 0\nx265 [info]: References / ref-limit  cu / depth  : 4 / on / on\nx265 [info]: AQ: mode / str / qg-size / cu-tree  : 2 / 1.0 / 32 / 1\nx265 [info]: Rate Control / qCompress            : ABR-1500 kbps / 0.60\nx265 [info]: VBV/HRD buffer / max-rate / init    : 1500 / 1500 / 0.750\nx265 [info]: tools: rect limit-modes rd=4 psy-rd=2.00 rdoq=2 psy-rdoq=1.00\nx265 [info]: tools: rskip mode=1 signhide tmvp strong-intra-smoothing lslices=4\nx265 [info]: tools: deblock sao dhdr10-info\nOutput #0, mp4, to 'C:\\Users\\Peter\\Desktop\\stuff\\MIUN\\quantitative_research\\video_compression\\compressed_videos\\UVG\\hevc\\1.5\\Bosphorus_1920x1080_120fps_420_8bit_YUV_hevc.mp4':\n  Metadata:\n    encoder         : Lavf62.3.100\n  Stream #0:0: Video: hevc (hev1 / 0x31766568), yuv420p10le(tv, progressive), 1920x1080, q=2-31, 1500 kb/s, 120 fps, 15360 tbn\n    Metadata:\n      encoder         : Lavc62.11.100 libx265\n    Side data:\n      cpb: bitrate max/min/avg: 1500000/0/1500000 buffer size: 1500000 vbv_delay: N/A\nframe=    0 fps=0.0 q=0.0 size=       0KiB time=N/A bitrate=N/A speed=N/A elapsed=0:00:01.15    \nframe=    0 fps=0.0 q=0.0 size=       0KiB time=N/A bitrate=N/A speed=N/A elapsed=0:00:01.81    \nframe=    0 fps=0.0 q=0.0 size=       0KiB time=N/A bitrate=N/A speed=N/A elapsed=0:00:02.38    \nframe=    0 fps=0.0 q=0.0 size=       0KiB time=N/A bitrate=N/A speed=N/A elapsed=0:00:02.90    \nframe=    0 fps=0.0 q=0.0 size=       0KiB time=N/A bitrate=N/A speed=N/A elapsed=0:00:03.47    \nframe=    0 fps=0.0 q=0.0 size=       0KiB time=N/A bitrate=N/A speed=N/A elapsed=0:00:04.04    \nframe=    0 fps=0.0 q=0.0 size=       0KiB time=N/A bitrate=N/A speed=N/A elapsed=0:00:04.56    \nframe=    0 fps=0.0 q=0.0 size=       0KiB time=N/A bitrate=N/A speed=N/A elapsed=0:00:05.11    \nframe=    0 fps=0.0 q=0.0 size=       0KiB time=N/A bitrate=N/A speed=N/A elapsed=0:00:05.65    \nframe=    0 fps=0.0 q=0.0 size=       0KiB time=N/A bitrate=N/A speed=N/A elapsed=0:00:06.18    \nframe=    0 fps=0.0 q=0.0 size=       0KiB time=N/A bitrate=N/A speed=N/A elapsed=0:00:06.71    \nframe=    0 fps=0.0 q=0.0 size=       0KiB time=N/A bitrate=N/A speed=N/A elapsed=0:00:07.30    \nframe=    0 fps=0.0 q=0.0 size=       0KiB time=N/A bitrate=N/A speed=N/A elapsed=0:00:07.85    \nframe=    0 fps=0.0 q=0.0 size=       0KiB time=N/A bitrate=N/A speed=N/A elapsed=0:00:08.41    \nframe=    0 fps=0.0 q=0.0 size=       0KiB time=N/A bitrate=N/A speed=N/A elapsed=0:00:08.94    \nframe=    0 fps=0.0 q=0.0 size=       0KiB time=N/A bitrate=N/A speed=N/A elapsed=0:00:09.50    \nframe=    0 fps=0.0 q=0.0 size=       0KiB time=N/A bitrate=N/A speed=N/A elapsed=0:00:10.08    \nframe=    0 fps=0.0 q=0.0 size=       0KiB time=N/A bitrate=N/A speed=N/A elapsed=0:00:10.61    \nframe=    0 fps=0.0 q=0.0 size=       0KiB time=N/A bitrate=N/A speed=N/A elapsed=0:00:11.13    \nframe=    0 fps=0.0 q=0.0 size=       0KiB time=N/A bitrate=N/A speed=N/A elapsed=0:00:11.73    \nframe=    0 fps=0.0 q=0.0 size=       0KiB time=N/A bitrate=N/A speed=N/A elapsed=0:00:12.37    \nframe=    0 fps=0.0 q=0.0 size=       0KiB time=N/A bitrate=N/A speed=N/A elapsed=0:00:12.95    \nframe=    0 fps=0.0 q=0.0 size=       0KiB time=N/A bitrate=N/A speed=N/A elapsed=0:00:13.56    \nframe=    0 fps=0.0 q=0.0 size=       0KiB time=N/A bitrate=N/A speed=N/A elapsed=0:00:14.15    \nframe=    1 fps=0.1 q=48.5 size=       0KiB time=-00:00:00.00 bitrate=N/A speed=N/A elapsed=0:00:14.76    \nframe=    3 fps=0.2 q=51.0 size=       0KiB time=00:00:00.00 bitrate=  42.2kbits/s speed=0.00054x elapsed=0:00:15.44    \nframe=    3 fps=0.2 q=51.0 size=       0KiB time=00:00:00.00 bitrate=  42.2kbits/s speed=0.000518x elapsed=0:00:16.08    \nframe=    3 fps=0.2 q=51.0 size=       0KiB time=00:00:00.00 bitrate=  42.2kbits/s speed=0.000499x elapsed=0:00:16.71    \nframe=    4 fps=0.2 q=51.0 size=       0KiB time=00:00:00.01 bitrate=  21.1kbits/s speed=0.000964x elapsed=0:00:17.28    \nframe=    6 fps=0.3 q=46.6 size=       0KiB time=00:00:00.03 bitrate=  10.6kbits/s speed=0.00187x elapsed=0:00:17.82    \nframe=    6 fps=0.3 q=46.6 size=       0KiB time=00:00:00.03 bitrate=  10.6kbits/s speed=0.0018x elapsed=0:00:18.50    \nframe=    6 fps=0.3 q=46.6 size=       0KiB time=00:00:00.03 bitrate=  10.6kbits/s speed=0.00175x elapsed=0:00:19.06    \nframe=    6 fps=0.3 q=46.6 size=       0KiB time=00:00:00.03 bitrate=  10.6kbits/s speed=0.0017x elapsed=0:00:19.60    \nframe=    6 fps=0.3 q=46.6 size=       0KiB time=00:00:00.03 bitrate=  10.6kbits/s speed=0.00165x elapsed=0:00:20.16    \nframe=    7 fps=0.3 q=50.9 size=       0KiB time=00:00:00.04 bitrate=   8.4kbits/s speed=0.00201x elapsed=0:00:20.68    \nframe=    7 fps=0.3 q=50.9 size=       0KiB time=00:00:00.04 bitrate=   8.4kbits/s speed=0.00196x elapsed=0:00:21.20    \nframe=    8 fps=0.4 q=50.0 size=       0KiB time=00:00:00.05 bitrate=   7.0kbits/s speed=0.0023x elapsed=0:00:21.75    \nframe=    8 fps=0.4 q=50.0 size=       0KiB time=00:00:00.05 bitrate=   7.0kbits/s speed=0.00225x elapsed=0:00:22.26    \nframe=    9 fps=0.4 q=49.0 size=       0KiB time=00:00:00.05 bitrate=   6.0kbits/s speed=0.00256x elapsed=0:00:22.80    \nframe=    9 fps=0.4 q=49.0 size=       0KiB time=00:00:00.05 bitrate=   6.0kbits/s speed=0.0025x elapsed=0:00:23.34    \nframe=   10 fps=0.4 q=42.6 size=       0KiB time=00:00:00.06 bitrate=   5.3kbits/s speed=0.00279x elapsed=0:00:23.89    \nframe=   10 fps=0.4 q=42.6 size=       0KiB time=00:00:00.06 bitrate=   5.3kbits/s speed=0.00273x elapsed=0:00:24.42    \nframe=   10 fps=0.4 q=42.6 size=       0KiB time=00:00:00.06 bitrate=   5.3kbits/s speed=0.00267x elapsed=0:00:24.99    \nframe=   11 fps=0.4 q=48.9 size=       0KiB time=00:00:00.07 bitrate=   4.7kbits/s speed=0.00294x elapsed=0:00:25.52    \nframe=   11 fps=0.4 q=48.9 size=       0KiB time=00:00:00.07 bitrate=   4.7kbits/s speed=0.00287x elapsed=0:00:26.08    \nframe=   11 fps=0.4 q=48.9 size=       0KiB time=00:00:00.07 bitrate=   4.7kbits/s speed=0.00281x elapsed=0:00:26.69    \nframe=   11 fps=0.4 q=48.9 size=       0KiB time=00:00:00.07 bitrate=   4.7kbits/s speed=0.00275x elapsed=0:00:27.24    \nframe=   11 fps=0.4 q=48.9 size=       0KiB time=00:00:00.07 bitrate=   4.7kbits/s speed=0.0027x elapsed=0:00:27.79    \nframe=   11 fps=0.4 q=48.9 size=       0KiB time=00:00:00.07 bitrate=   4.7kbits/s speed=0.00265x elapsed=0:00:28.35    \nframe=   11 fps=0.4 q=48.9 size=       0KiB time=00:00:00.07 bitrate=   4.7kbits/s speed=0.0026x elapsed=0:00:28.90    \nframe=   11 fps=0.4 q=48.9 size=       0KiB time=00:00:00.07 bitrate=   4.7kbits/s speed=0.00255x elapsed=0:00:29.43    \nframe=   11 fps=0.4 q=48.9 size=       0KiB time=00:00:00.07 bitrate=   4.7kbits/s speed=0.0025x elapsed=0:00:29.96    \nframe=   12 fps=0.4 q=49.0 size=       0KiB time=00:00:00.08 bitrate=   4.2kbits/s speed=0.00273x elapsed=0:00:30.50    \nframe=   12 fps=0.4 q=49.0 size=       0KiB time=00:00:00.08 bitrate=   4.2kbits/s speed=0.00269x elapsed=0:00:31.02    \nframe=   13 fps=0.4 q=50.0 size=       0KiB time=00:00:00.09 bitrate=   3.8kbits/s speed=0.00291x elapsed=0:00:31.55    \nframe=   13 fps=0.4 q=50.0 size=       0KiB time=00:00:00.09 bitrate=   3.8kbits/s speed=0.00285x elapsed=0:00:32.12    \nframe=   13 fps=0.4 q=50.0 size=       0KiB time=00:00:00.09 bitrate=   3.8kbits/s speed=0.0028x elapsed=0:00:32.68    \nframe=   14 fps=0.4 q=42.6 size=       0KiB time=00:00:00.10 bitrate=   3.5kbits/s speed=0.00301x elapsed=0:00:33.25    \nframe=   14 fps=0.4 q=42.6 size=       0KiB time=00:00:00.10 bitrate=   3.5kbits/s speed=0.00296x elapsed=0:00:33.80    \nframe=   15 fps=0.4 q=49.0 size=       0KiB time=00:00:00.10 bitrate=   3.2kbits/s speed=0.00316x elapsed=0:00:34.32    \nframe=   16 fps=0.5 q=49.0 size=       0KiB time=00:00:00.11 bitrate=   3.0kbits/s speed=0.00335x elapsed=0:00:34.87    \nframe=   16 fps=0.5 q=49.0 size=       0KiB time=00:00:00.11 bitrate=   3.0kbits/s speed=0.00329x elapsed=0:00:35.44    \nframe=   16 fps=0.4 q=49.0 size=       0KiB time=00:00:00.11 bitrate=   3.0kbits/s speed=0.00323x elapsed=0:00:36.07    \nframe=   17 fps=0.5 q=48.0 size=       0KiB time=00:00:00.12 bitrate=   2.8kbits/s speed=0.00341x elapsed=0:00:36.64    \nframe=   18 fps=0.5 q=41.6 size=       0KiB time=00:00:00.13 bitrate=   2.6kbits/s speed=0.00358x elapsed=0:00:37.19    \nframe=   18 fps=0.5 q=41.6 size=       0KiB time=00:00:00.13 bitrate=   2.6kbits/s speed=0.00353x elapsed=0:00:37.77    \nframe=   18 fps=0.5 q=41.6 size=       0KiB time=00:00:00.13 bitrate=   2.6kbits/s speed=0.00348x elapsed=0:00:38.28    \nframe=   19 fps=0.5 q=46.9 size=       0KiB time=00:00:00.14 bitrate=   2.5kbits/s speed=0.00365x elapsed=0:00:38.81    \nframe=   19 fps=0.5 q=46.9 size=       0KiB time=00:00:00.14 bitrate=   2.5kbits/s speed=0.0036x elapsed=0:00:39.34    \nframe=   19 fps=0.5 q=46.9 size=       0KiB time=00:00:00.14 bitrate=   2.5kbits/s speed=0.00355x elapsed=0:00:39.87    \nframe=   19 fps=0.5 q=46.9 size=       0KiB time=00:00:00.14 bitrate=   2.5kbits/s speed=0.0035x elapsed=0:00:40.42    \nframe=   19 fps=0.5 q=46.9 size=       0KiB time=00:00:00.14 bitrate=   2.5kbits/s speed=0.00346x elapsed=0:00:40.95    \nframe=   20 fps=0.5 q=47.0 size=       0KiB time=00:00:00.15 bitrate=   2.3kbits/s speed=0.00361x elapsed=0:00:41.53    \nframe=   20 fps=0.5 q=47.0 size=       0KiB time=00:00:00.15 bitrate=   2.3kbits/s speed=0.00356x elapsed=0:00:42.07    \nframe=   21 fps=0.5 q=47.0 size=       0KiB time=00:00:00.15 bitrate=   2.2kbits/s speed=0.00371x elapsed=0:00:42.66    \nframe=   22 fps=0.5 q=40.0 size=       0KiB time=00:00:00.16 bitrate=   2.1kbits/s speed=0.00386x elapsed=0:00:43.20    \nframe=   22 fps=0.5 q=40.0 size=       0KiB time=00:00:00.16 bitrate=   2.1kbits/s speed=0.00381x elapsed=0:00:43.79    \nframe=   23 fps=0.5 q=46.8 size=       0KiB time=00:00:00.17 bitrate=   2.0kbits/s speed=0.00395x elapsed=0:00:44.33    \nframe=   23 fps=0.5 q=46.8 size=       0KiB time=00:00:00.17 bitrate=   2.0kbits/s speed=0.0039x elapsed=0:00:44.91    \nframe=   23 fps=0.5 q=46.8 size=       0KiB time=00:00:00.17 bitrate=   2.0kbits/s speed=0.00385x elapsed=0:00:45.44    \nframe=   24 fps=0.5 q=46.0 size=       0KiB time=00:00:00.18 bitrate=   1.9kbits/s speed=0.00399x elapsed=0:00:45.99    \nframe=   25 fps=0.5 q=46.0 size=       0KiB time=00:00:00.19 bitrate=   1.8kbits/s speed=0.00412x elapsed=0:00:46.57    \nframe=   26 fps=0.6 q=39.6 size=       0KiB time=00:00:00.20 bitrate=   1.8kbits/s speed=0.00425x elapsed=0:00:47.11    \nframe=   27 fps=0.6 q=45.9 size=       0KiB time=00:00:00.20 bitrate=   1.7kbits/s speed=0.00437x elapsed=0:00:47.62    \nframe=   27 fps=0.6 q=45.9 size=       0KiB time=00:00:00.20 bitrate=   1.7kbits/s speed=0.00433x elapsed=0:00:48.15    \nframe=   27 fps=0.6 q=45.9 size=       0KiB time=00:00:00.20 bitrate=   1.7kbits/s speed=0.00428x elapsed=0:00:48.66    \nframe=   27 fps=0.5 q=45.9 size=       0KiB time=00:00:00.20 bitrate=   1.7kbits/s speed=0.00423x elapsed=0:00:49.19    \nframe=   28 fps=0.6 q=46.0 size=       0KiB time=00:00:00.21 bitrate=   1.6kbits/s speed=0.00435x elapsed=0:00:49.75    \nframe=   28 fps=0.6 q=46.0 size=       0KiB time=00:00:00.21 bitrate=   1.6kbits/s speed=0.00431x elapsed=0:00:50.31    \nframe=   28 fps=0.6 q=46.0 size=       0KiB time=00:00:00.21 bitrate=   1.6kbits/s speed=0.00426x elapsed=0:00:50.88    \nframe=   28 fps=0.5 q=46.0 size=       0KiB time=00:00:00.21 bitrate=   1.6kbits/s speed=0.00421x elapsed=0:00:51.41    \nframe=   28 fps=0.5 q=46.0 size=       0KiB time=00:00:00.21 bitrate=   1.6kbits/s speed=0.00417x elapsed=0:00:51.93    \nframe=   28 fps=0.5 q=46.0 size=       0KiB time=00:00:00.21 bitrate=   1.6kbits/s speed=0.00413x elapsed=0:00:52.47    \nframe=   30 fps=0.6 q=39.0 size=       0KiB time=00:00:00.23 bitrate=   1.5kbits/s speed=0.0044x elapsed=0:00:53.00    \nframe=   30 fps=0.6 q=39.0 size=       0KiB time=00:00:00.23 bitrate=   1.5kbits/s speed=0.00436x elapsed=0:00:53.57    \nframe=   31 fps=0.6 q=44.9 size=       0KiB time=00:00:00.24 bitrate=   1.5kbits/s speed=0.00446x elapsed=0:00:54.17    \nframe=   31 fps=0.6 q=44.9 size=       0KiB time=00:00:00.24 bitrate=   1.5kbits/s speed=0.00442x elapsed=0:00:54.72    \nframe=   31 fps=0.6 q=44.9 size=       0KiB time=00:00:00.24 bitrate=   1.5kbits/s speed=0.00437x elapsed=0:00:55.26    \nframe=   32 fps=0.6 q=46.0 size=       0KiB time=00:00:00.25 bitrate=   1.4kbits/s speed=0.00448x elapsed=0:00:55.85    \nframe=   33 fps=0.6 q=45.0 size=       0KiB time=00:00:00.25 bitrate=   1.4kbits/s speed=0.00458x elapsed=0:00:56.43    \nframe=   33 fps=0.6 q=45.0 size=       0KiB time=00:00:00.25 bitrate=   1.4kbits/s speed=0.00454x elapsed=0:00:56.94    \nframe=   33 fps=0.6 q=45.0 size=       0KiB time=00:00:00.25 bitrate=   1.4kbits/s speed=0.00449x elapsed=0:00:57.54    \nframe=   33 fps=0.6 q=45.0 size=       0KiB time=00:00:00.25 bitrate=   1.4kbits/s speed=0.00445x elapsed=0:00:58.08    \nframe=   35 fps=0.6 q=44.9 size=       0KiB time=00:00:00.27 bitrate=   1.3kbits/s speed=0.00469x elapsed=0:00:58.66    \nframe=   36 fps=0.6 q=46.0 size=       0KiB time=00:00:00.28 bitrate=   1.2kbits/s speed=0.00478x elapsed=0:00:59.23    \nframe=   36 fps=0.6 q=46.0 size=       0KiB time=00:00:00.28 bitrate=   1.2kbits/s speed=0.00474x elapsed=0:00:59.83    \nframe=   36 fps=0.6 q=46.0 size=       0KiB time=00:00:00.28 bitrate=   1.2kbits/s speed=0.00469x elapsed=0:01:00.37    \nframe=   36 fps=0.6 q=46.0 size=       0KiB time=00:00:00.28 bitrate=   1.2kbits/s speed=0.00465x elapsed=0:01:00.95    \nframe=   36 fps=0.6 q=46.0 size=       0KiB time=00:00:00.28 bitrate=   1.2kbits/s speed=0.0046x elapsed=0:01:01.54    \nframe=   36 fps=0.6 q=46.0 size=       0KiB time=00:00:00.28 bitrate=   1.2kbits/s speed=0.00456x elapsed=0:01:02.11    \nframe=   36 fps=0.6 q=46.0 size=       0KiB time=00:00:00.28 bitrate=   1.2kbits/s speed=0.00452x elapsed=0:01:02.66    \nframe=   36 fps=0.6 q=46.0 size=       0KiB time=00:00:00.28 bitrate=   1.2kbits/s speed=0.00448x elapsed=0:01:03.23    \nframe=   36 fps=0.6 q=46.0 size=       0KiB time=00:00:00.28 bitrate=   1.2kbits/s speed=0.00444x elapsed=0:01:03.77    \nframe=   36 fps=0.6 q=46.0 size=       0KiB time=00:00:00.28 bitrate=   1.2kbits/s speed=0.0044x elapsed=0:01:04.33    \nframe=   36 fps=0.6 q=46.0 size=       0KiB time=00:00:00.28 bitrate=   1.2kbits/s speed=0.00437x elapsed=0:01:04.89    \nframe=   37 fps=0.6 q=45.0 size=       0KiB time=00:00:00.29 bitrate=   1.2kbits/s speed=0.00446x elapsed=0:01:05.43    \nframe=   37 fps=0.6 q=45.0 size=       0KiB time=00:00:00.29 bitrate=   1.2kbits/s speed=0.00442x elapsed=0:01:05.96    \nframe=   37 fps=0.6 q=45.0 size=       0KiB time=00:00:00.29 bitrate=   1.2kbits/s speed=0.00439x elapsed=0:01:06.49    \nframe=   38 fps=0.6 q=39.4 size=       0KiB time=00:00:00.30 bitrate=   1.2kbits/s speed=0.00448x elapsed=0:01:07.01    \nframe=   38 fps=0.6 q=39.4 size=       0KiB time=00:00:00.30 bitrate=   1.2kbits/s speed=0.00444x elapsed=0:01:07.60    \nframe=   39 fps=0.6 q=44.9 size=       0KiB time=00:00:00.30 bitrate=   1.1kbits/s speed=0.00452x elapsed=0:01:08.15    \nframe=   40 fps=0.6 q=45.0 size=       0KiB time=00:00:00.31 bitrate=   1.1kbits/s speed=0.00461x elapsed=0:01:08.73    \nframe=   40 fps=0.6 q=45.0 size=       0KiB time=00:00:00.31 bitrate=   1.1kbits/s speed=0.00457x elapsed=0:01:09.31    \nframe=   40 fps=0.6 q=45.0 size=       0KiB time=00:00:00.31 bitrate=   1.1kbits/s speed=0.00453x elapsed=0:01:09.92    \nframe=   42 fps=0.6 q=38.1 size=       0KiB time=00:00:00.33 bitrate=   1.1kbits/s speed=0.00473x elapsed=0:01:10.49    \nframe=   43 fps=0.6 q=43.9 size=       0KiB time=00:00:00.34 bitrate=   1.0kbits/s speed=0.00481x elapsed=0:01:11.03    \nframe=   43 fps=0.6 q=43.9 size=       0KiB time=00:00:00.34 bitrate=   1.0kbits/s speed=0.00477x elapsed=0:01:11.55    \nframe=   44 fps=0.6 q=45.0 size=       0KiB time=00:00:00.35 bitrate=   1.0kbits/s speed=0.00485x elapsed=0:01:12.10    \nframe=   44 fps=0.6 q=45.0 size=       0KiB time=00:00:00.35 bitrate=   1.0kbits/s speed=0.00482x elapsed=0:01:12.63    \nframe=   45 fps=0.6 q=45.0 size=       0KiB time=00:00:00.35 bitrate=   1.0kbits/s speed=0.00489x elapsed=0:01:13.20    \nframe=   45 fps=0.6 q=45.0 size=       0KiB time=00:00:00.35 bitrate=   1.0kbits/s speed=0.00485x elapsed=0:01:13.89    \nframe=   46 fps=0.6 q=38.7 size=       0KiB time=00:00:00.36 bitrate=   1.0kbits/s speed=0.00493x elapsed=0:01:14.44    \nframe=   46 fps=0.6 q=38.7 size=       0KiB time=00:00:00.36 bitrate=   1.0kbits/s speed=0.00489x elapsed=0:01:14.99    \nframe=   46 fps=0.6 q=38.7 size=       0KiB time=00:00:00.36 bitrate=   1.0kbits/s speed=0.00485x elapsed=0:01:15.57    \nframe=   47 fps=0.6 q=43.8 size=       0KiB time=00:00:00.37 bitrate=   0.9kbits/s speed=0.00493x elapsed=0:01:16.11    \nframe=   47 fps=0.6 q=43.8 size=       0KiB time=00:00:00.37 bitrate=   0.9kbits/s speed=0.00489x elapsed=0:01:16.67    \nframe=   47 fps=0.6 q=43.8 size=       0KiB time=00:00:00.37 bitrate=   0.9kbits/s speed=0.00486x elapsed=0:01:17.22    \nframe=   47 fps=0.6 q=43.8 size=       0KiB time=00:00:00.37 bitrate=   0.9kbits/s speed=0.00482x elapsed=0:01:17.73    \nframe=   47 fps=0.6 q=43.8 size=       0KiB time=00:00:00.37 bitrate=   0.9kbits/s speed=0.00479x elapsed=0:01:18.28    \nframe=   48 fps=0.6 q=45.0 size=       0KiB time=00:00:00.38 bitrate=   0.9kbits/s speed=0.00486x elapsed=0:01:18.92    \nframe=   48 fps=0.6 q=45.0 size=       0KiB time=00:00:00.38 bitrate=   0.9kbits/s speed=0.00483x elapsed=0:01:19.44    \nframe=   48 fps=0.6 q=45.0 size=       0KiB time=00:00:00.38 bitrate=   0.9kbits/s speed=0.00479x elapsed=0:01:20.04    \nframe=   48 fps=0.6 q=45.0 size=       0KiB time=00:00:00.38 bitrate=   0.9kbits/s speed=0.00475x elapsed=0:01:20.62    \nframe=   48 fps=0.6 q=45.0 size=       0KiB time=00:00:00.38 bitrate=   0.9kbits/s speed=0.00472x elapsed=0:01:21.25    \nframe=   48 fps=0.6 q=45.0 size=       0KiB time=00:00:00.38 bitrate=   0.9kbits/s speed=0.00469x elapsed=0:01:21.80    \nframe=   49 fps=0.6 q=44.0 size=       0KiB time=00:00:00.39 bitrate=   0.9kbits/s speed=0.00475x elapsed=0:01:22.37    \nframe=   50 fps=0.6 q=38.3 size=       0KiB time=00:00:00.40 bitrate=   0.9kbits/s speed=0.00482x elapsed=0:01:22.96    \nframe=   51 fps=0.6 q=43.8 size=       0KiB time=00:00:00.40 bitrate=   0.9kbits/s speed=0.00489x elapsed=0:01:23.55    \nframe=   51 fps=0.6 q=43.8 size=       0KiB time=00:00:00.40 bitrate=   0.9kbits/s speed=0.00485x elapsed=0:01:24.12    \nframe=   51 fps=0.6 q=43.8 size=       0KiB time=00:00:00.40 bitrate=   0.9kbits/s speed=0.00482x elapsed=0:01:24.66    \nframe=   52 fps=0.6 q=45.0 size=       0KiB time=00:00:00.40 bitrate=   0.9kbits/s speed=0.00479x elapsed=0:01:25.23    \nframe=   52 fps=0.6 q=45.0 size=       0KiB time=00:00:00.41 bitrate=   0.8kbits/s speed=0.00486x elapsed=0:01:25.81    \nframe=   52 fps=0.6 q=45.0 size=       0KiB time=00:00:00.41 bitrate=   0.8kbits/s speed=0.00482x elapsed=0:01:26.45    \nframe=   52 fps=0.6 q=45.0 size=       0KiB time=00:00:00.41 bitrate=   0.8kbits/s speed=0.00479x elapsed=0:01:26.97    \nframe=   54 fps=0.6 q=37.7 size=       0KiB time=00:00:00.43 bitrate=   0.8kbits/s speed=0.00495x elapsed=0:01:27.52    \nframe=   55 fps=0.6 q=43.7 size=       0KiB time=00:00:00.44 bitrate=   0.8kbits/s speed=0.00502x elapsed=0:01:28.05    \nframe=   55 fps=0.6 q=43.7 size=       0KiB time=00:00:00.44 bitrate=   0.8kbits/s speed=0.00498x elapsed=0:01:28.62    \nframe=   56 fps=0.6 q=44.0 size=       0KiB time=00:00:00.45 bitrate=   0.8kbits/s speed=0.00505x elapsed=0:01:29.19    \nframe=   56 fps=0.6 q=44.0 size=       0KiB time=00:00:00.45 bitrate=   0.8kbits/s speed=0.00501x elapsed=0:01:29.75    \nframe=   58 fps=0.6 q=37.5 size=       0KiB time=00:00:00.46 bitrate=   0.8kbits/s speed=0.00517x elapsed=0:01:30.31    \nframe=   59 fps=0.6 q=43.8 size=       0KiB time=00:00:00.47 bitrate=   0.7kbits/s speed=0.00523x elapsed=0:01:30.83    \nframe=   60 fps=0.7 q=44.0 size=       0KiB time=00:00:00.48 bitrate=   0.7kbits/s speed=0.00529x elapsed=0:01:31.39    \nframe=   60 fps=0.7 q=44.0 size=       0KiB time=00:00:00.48 bitrate=   0.7kbits/s speed=0.00526x elapsed=0:01:31.97    \nframe=   61 fps=0.7 q=44.0 size=       0KiB time=00:00:00.49 bitrate=   0.7kbits/s speed=0.00531x elapsed=0:01:32.50    \nframe=   62 fps=0.7 q=38.0 size=       0KiB time=00:00:00.50 bitrate=   0.7kbits/s speed=0.00537x elapsed=0:01:33.03    \nframe=   63 fps=0.7 q=43.7 size=       0KiB time=00:00:00.50 bitrate=   0.7kbits/s speed=0.00543x elapsed=0:01:33.59    \nframe=   63 fps=0.7 q=43.7 size=       0KiB time=00:00:00.50 bitrate=   0.7kbits/s speed=0.0054x elapsed=0:01:34.13    \nframe=   64 fps=0.7 q=44.0 size=       0KiB time=00:00:00.51 bitrate=   0.7kbits/s speed=0.00545x elapsed=0:01:34.73    \nframe=   64 fps=0.7 q=44.0 size=       0KiB time=00:00:00.51 bitrate=   0.7kbits/s speed=0.00542x elapsed=0:01:35.27    \nframe=   65 fps=0.7 q=44.0 size=       0KiB time=00:00:00.52 bitrate=   0.7kbits/s speed=0.00548x elapsed=0:01:35.80    \nframe=   68 fps=0.7 q=44.0 size=       0KiB time=00:00:00.55 bitrate=   0.6kbits/s speed=0.00571x elapsed=0:01:36.32    \nframe=   68 fps=0.7 q=44.0 size=       0KiB time=00:00:00.55 bitrate=   0.6kbits/s speed=0.00568x elapsed=0:01:36.85    \nframe=   69 fps=0.7 q=44.0 size=       0KiB time=00:00:00.55 bitrate=   0.6kbits/s speed=0.00573x elapsed=0:01:37.37    \nframe=   70 fps=0.7 q=36.9 size=       0KiB time=00:00:00.56 bitrate=   0.6kbits/s speed=0.00579x elapsed=0:01:37.93    \nframe=   71 fps=0.7 q=42.3 size=       0KiB time=00:00:00.56 bitrate=   0.6kbits/s speed=0.00575x elapsed=0:01:38.50    \nframe=   71 fps=0.7 q=42.3 size=       0KiB time=00:00:00.57 bitrate=   0.6kbits/s speed=0.00581x elapsed=0:01:39.03    \nframe=   73 fps=0.7 q=44.0 size=       0KiB time=00:00:00.59 bitrate=   0.6kbits/s speed=0.00594x elapsed=0:01:39.58    \nframe=   74 fps=0.7 q=38.0 size=       0KiB time=00:00:00.60 bitrate=   0.6kbits/s speed=0.00599x elapsed=0:01:40.11    \nframe=   75 fps=0.7 q=42.7 size=       0KiB time=00:00:00.60 bitrate=   0.6kbits/s speed=0.00604x elapsed=0:01:40.66    \nframe=   76 fps=0.8 q=44.0 size=       0KiB time=00:00:00.61 bitrate=   0.6kbits/s speed=0.00609x elapsed=0:01:41.20    \nframe=   76 fps=0.7 q=44.0 size=       0KiB time=00:00:00.61 bitrate=   0.6kbits/s speed=0.00606x elapsed=0:01:41.77    \nframe=   76 fps=0.7 q=44.0 size=       0KiB time=00:00:00.61 bitrate=   0.6kbits/s speed=0.00603x elapsed=0:01:42.32    \nframe=   78 fps=0.8 q=37.5 size=       0KiB time=00:00:00.63 bitrate=   0.6kbits/s speed=0.00616x elapsed=0:01:42.88    \nframe=   79 fps=0.8 q=42.7 size=       0KiB time=00:00:00.64 bitrate=   0.5kbits/s speed=0.00621x elapsed=0:01:43.40    \nframe=   80 fps=0.8 q=44.0 size=       0KiB time=00:00:00.65 bitrate=   0.5kbits/s speed=0.00625x elapsed=0:01:43.91    \nframe=   80 fps=0.8 q=44.0 size=       0KiB time=00:00:00.65 bitrate=   0.5kbits/s speed=0.00622x elapsed=0:01:44.46    \nframe=   80 fps=0.8 q=44.0 size=       0KiB time=00:00:00.65 bitrate=   0.5kbits/s speed=0.00619x elapsed=0:01:45.01    \nframe=   81 fps=0.8 q=44.0 size=       0KiB time=00:00:00.65 bitrate=   0.5kbits/s speed=0.00624x elapsed=0:01:45.54    \nframe=   82 fps=0.8 q=37.6 size=       0KiB time=00:00:00.66 bitrate=   0.5kbits/s speed=0.00628x elapsed=0:01:46.09    \nframe=   83 fps=0.8 q=42.7 size=       0KiB time=00:00:00.67 bitrate=   0.5kbits/s speed=0.00633x elapsed=0:01:46.65    \nframe=   83 fps=0.8 q=42.7 size=       0KiB time=00:00:00.67 bitrate=   0.5kbits/s speed=0.0063x elapsed=0:01:47.22    \nframe=   83 fps=0.8 q=42.7 size=       0KiB time=00:00:00.67 bitrate=   0.5kbits/s speed=0.00626x elapsed=0:01:47.77    \nframe=   83 fps=0.8 q=42.7 size=       0KiB time=00:00:00.67 bitrate=   0.5kbits/s speed=0.00623x elapsed=0:01:48.33    \nframe=   83 fps=0.8 q=42.7 size=       0KiB time=00:00:00.67 bitrate=   0.5kbits/s speed=0.0062x elapsed=0:01:48.86    \nframe=   84 fps=0.8 q=44.0 size=       0KiB time=00:00:00.68 bitrate=   0.5kbits/s speed=0.00625x elapsed=0:01:49.41    \nframe=   84 fps=0.8 q=44.0 size=       0KiB time=00:00:00.68 bitrate=   0.5kbits/s speed=0.00622x elapsed=0:01:49.94    \nframe=   84 fps=0.8 q=44.0 size=       0KiB time=00:00:00.68 bitrate=   0.5kbits/s speed=0.00619x elapsed=0:01:50.46    \nframe=   84 fps=0.8 q=44.0 size=       0KiB time=00:00:00.68 bitrate=   0.5kbits/s speed=0.00616x elapsed=0:01:51.01    \nframe=   85 fps=0.8 q=44.0 size=       0KiB time=00:00:00.69 bitrate=   0.5kbits/s speed=0.0062x elapsed=0:01:51.53    \nframe=   85 fps=0.8 q=44.0 size=       0KiB time=00:00:00.69 bitrate=   0.5kbits/s speed=0.00617x elapsed=0:01:52.04    \nframe=   86 fps=0.8 q=38.4 size=       0KiB time=00:00:00.70 bitrate=   0.5kbits/s speed=0.00622x elapsed=0:01:52.61    \nframe=   87 fps=0.8 q=42.8 size=       0KiB time=00:00:00.70 bitrate=   0.5kbits/s speed=0.00626x elapsed=0:01:53.16    \nframe=   87 fps=0.8 q=42.8 size=       0KiB time=00:00:00.70 bitrate=   0.5kbits/s speed=0.00623x elapsed=0:01:53.74    \nframe=   89 fps=0.8 q=43.0 size=       0KiB time=00:00:00.72 bitrate=   0.5kbits/s speed=0.00635x elapsed=0:01:54.25    \nframe=   90 fps=0.8 q=37.5 size=       0KiB time=00:00:00.73 bitrate=   0.5kbits/s speed=0.00639x elapsed=0:01:54.81    \nframe=   91 fps=0.8 q=42.9 size=       0KiB time=00:00:00.74 bitrate=   0.5kbits/s speed=0.00643x elapsed=0:01:55.37    \nframe=   91 fps=0.8 q=42.9 size=       0KiB time=00:00:00.74 bitrate=   0.5kbits/s speed=0.0064x elapsed=0:01:55.94    \nframe=   91 fps=0.8 q=42.9 size=       0KiB time=00:00:00.74 bitrate=   0.5kbits/s speed=0.00637x elapsed=0:01:56.48    \nframe=   93 fps=0.8 q=43.9 size=       0KiB time=00:00:00.75 bitrate=   0.5kbits/s speed=0.00648x elapsed=0:01:57.04    \nframe=   93 fps=0.8 q=43.9 size=       0KiB time=00:00:00.75 bitrate=   0.5kbits/s speed=0.00645x elapsed=0:01:57.56    \nframe=   94 fps=0.8 q=44.0 size=       0KiB time=00:00:00.76 bitrate=   0.5kbits/s speed=0.00649x elapsed=0:01:58.08    \nframe=   95 fps=0.8 q=39.1 size=       0KiB time=00:00:00.77 bitrate=   0.5kbits/s speed=0.00653x elapsed=0:01:58.61    \nframe=   96 fps=0.8 q=42.9 size=       0KiB time=00:00:00.78 bitrate=   0.4kbits/s speed=0.00657x elapsed=0:01:59.13    \nframe=   97 fps=0.8 q=43.9 size=       0KiB time=00:00:00.79 bitrate=   0.4kbits/s speed=0.00662x elapsed=0:01:59.65    \nframe=   98 fps=0.8 q=43.9 size=       0KiB time=00:00:00.80 bitrate=   0.4kbits/s speed=0.00666x elapsed=0:02:00.18    \nframe=   98 fps=0.8 q=43.9 size=       0KiB time=00:00:00.80 bitrate=   0.4kbits/s speed=0.00663x elapsed=0:02:00.72    \nframe=   99 fps=0.8 q=44.0 size=       0KiB time=00:00:00.80 bitrate=   0.4kbits/s speed=0.00667x elapsed=0:02:01.24    \nframe=   99 fps=0.8 q=44.0 size=       0KiB time=00:00:00.80 bitrate=   0.4kbits/s speed=0.00664x elapsed=0:02:01.82    \nframe=  100 fps=0.8 q=38.1 size=       0KiB time=00:00:00.81 bitrate=   0.4kbits/s speed=0.00667x elapsed=0:02:02.39    \nframe=  101 fps=0.8 q=40.6 size=       0KiB time=00:00:00.82 bitrate=   0.4kbits/s speed=0.00671x elapsed=0:02:02.97    \nframe=  102 fps=0.8 q=44.0 size=       0KiB time=00:00:00.83 bitrate=   0.4kbits/s speed=0.00675x elapsed=0:02:03.53    \nframe=  102 fps=0.8 q=44.0 size=       0KiB time=00:00:00.83 bitrate=   0.4kbits/s speed=0.00671x elapsed=0:02:04.10    \nframe=  103 fps=0.8 q=43.9 size=       0KiB time=00:00:00.84 bitrate=   0.4kbits/s speed=0.00675x elapsed=0:02:04.67    \nframe=  103 fps=0.8 q=43.9 size=       0KiB time=00:00:00.84 bitrate=   0.4kbits/s speed=0.00672x elapsed=0:02:05.20    \nframe=  104 fps=0.8 q=44.0 size=       0KiB time=00:00:00.85 bitrate=   0.4kbits/s speed=0.00676x elapsed=0:02:05.76    \nframe=  104 fps=0.8 q=44.0 size=       0KiB time=00:00:00.85 bitrate=   0.4kbits/s speed=0.00673x elapsed=0:02:06.35    \nframe=  104 fps=0.8 q=44.0 size=       0KiB time=00:00:00.85 bitrate=   0.4kbits/s speed=0.0067x elapsed=0:02:06.88    \nframe=  105 fps=0.8 q=38.9 size=       0KiB time=00:00:00.85 bitrate=   0.4kbits/s speed=0.00674x elapsed=0:02:07.40    \nframe=  106 fps=0.8 q=40.9 size=       0KiB time=00:00:00.86 bitrate=   0.4kbits/s speed=0.00677x elapsed=0:02:07.92    \nframe=  107 fps=0.8 q=44.0 size=       0KiB time=00:00:00.87 bitrate=   0.4kbits/s speed=0.00681x elapsed=0:02:08.46    \nframe=  107 fps=0.8 q=44.0 size=       0KiB time=00:00:00.87 bitrate=   0.4kbits/s speed=0.00678x elapsed=0:02:09.02    \nframe=  107 fps=0.8 q=44.0 size=       0KiB time=00:00:00.87 bitrate=   0.4kbits/s speed=0.00675x elapsed=0:02:09.59    \nframe=  108 fps=0.8 q=44.0 size=       0KiB time=00:00:00.88 bitrate=   0.4kbits/s speed=0.00679x elapsed=0:02:10.13    \nframe=  108 fps=0.8 q=44.0 size=       0KiB time=00:00:00.88 bitrate=   0.4kbits/s speed=0.00676x elapsed=0:02:10.65    \nframe=  109 fps=0.8 q=44.0 size=       0KiB time=00:00:00.89 bitrate=   0.4kbits/s speed=0.0068x elapsed=0:02:11.16    \nframe=  111 fps=0.8 q=42.8 size=       0KiB time=00:00:00.90 bitrate=   0.4kbits/s speed=0.0069x elapsed=0:02:11.71    \nframe=  112 fps=0.8 q=44.0 size=       0KiB time=00:00:00.91 bitrate=   0.4kbits/s speed=0.00693x elapsed=0:02:12.27    \nframe=  112 fps=0.8 q=44.0 size=       0KiB time=00:00:00.91 bitrate=   0.4kbits/s speed=0.0069x elapsed=0:02:12.80    \nframe=  112 fps=0.8 q=44.0 size=       0KiB time=00:00:00.91 bitrate=   0.4kbits/s speed=0.00687x elapsed=0:02:13.34    \nframe=  113 fps=0.8 q=44.0 size=       0KiB time=00:00:00.92 bitrate=   0.4kbits/s speed=0.00691x elapsed=0:02:13.87    \nframe=  115 fps=0.9 q=42.6 size=       0KiB time=00:00:00.94 bitrate=   0.4kbits/s speed=0.007x elapsed=0:02:14.43    \nframe=  116 fps=0.9 q=44.0 size=       0KiB time=00:00:00.95 bitrate=   0.4kbits/s speed=0.00704x elapsed=0:02:14.95    \nframe=  117 fps=0.9 q=44.0 size=       0KiB time=00:00:00.95 bitrate=   0.4kbits/s speed=0.00701x elapsed=0:02:15.49    \nframe=  119 fps=0.9 q=42.7 size=       0KiB time=00:00:00.97 bitrate=   0.4kbits/s speed=0.00717x elapsed=0:02:16.04    \nframe=  119 fps=0.9 q=42.7 size=       0KiB time=00:00:00.97 bitrate=   0.4kbits/s speed=0.00714x elapsed=0:02:16.60    \nframe=  120 fps=0.9 q=44.0 size=       0KiB time=00:00:00.98 bitrate=   0.4kbits/s speed=0.00717x elapsed=0:02:17.12    \nframe=  121 fps=0.9 q=44.0 size=       0KiB time=00:00:00.99 bitrate=   0.4kbits/s speed=0.0072x elapsed=0:02:17.68    \nframe=  122 fps=0.9 q=37.7 size=       0KiB time=00:00:01.00 bitrate=   0.4kbits/s speed=0.00724x elapsed=0:02:18.21    \nframe=  123 fps=0.9 q=42.6 size=       0KiB time=00:00:01.00 bitrate=   0.3kbits/s speed=0.00727x elapsed=0:02:18.77    \nframe=  124 fps=0.9 q=44.0 size=       0KiB time=00:00:01.01 bitrate=   0.3kbits/s speed=0.0073x elapsed=0:02:19.35    \nframe=  124 fps=0.9 q=44.0 size=       0KiB time=00:00:01.01 bitrate=   0.3kbits/s speed=0.00727x elapsed=0:02:19.90    \nframe=  124 fps=0.9 q=44.0 size=       0KiB time=00:00:01.01 bitrate=   0.3kbits/s speed=0.00724x elapsed=0:02:20.48    \nframe=  125 fps=0.9 q=44.0 size=       0KiB time=00:00:01.02 bitrate=   0.3kbits/s speed=0.00727x elapsed=0:02:21.02    \nframe=  127 fps=0.9 q=42.7 size=       0KiB time=00:00:01.04 bitrate=   0.3kbits/s speed=0.00736x elapsed=0:02:21.54    \nframe=  127 fps=0.9 q=42.7 size=       0KiB time=00:00:01.04 bitrate=   0.3kbits/s speed=0.00733x elapsed=0:02:22.08    \nframe=  128 fps=0.9 q=44.0 size=       0KiB time=00:00:01.05 bitrate=   0.3kbits/s speed=0.00736x elapsed=0:02:22.62    \nframe=  128 fps=0.9 q=44.0 size=       0KiB time=00:00:01.05 bitrate=   0.3kbits/s speed=0.00733x elapsed=0:02:23.16    \nframe=  129 fps=0.9 q=43.0 size=       0KiB time=00:00:01.05 bitrate=   0.3kbits/s speed=0.00736x elapsed=0:02:23.74    \nframe=  129 fps=0.9 q=43.0 size=       0KiB time=00:00:01.05 bitrate=   0.3kbits/s speed=0.00734x elapsed=0:02:24.27    \nframe=  131 fps=0.9 q=42.5 size=       0KiB time=00:00:01.07 bitrate=   0.3kbits/s speed=0.00742x elapsed=0:02:24.80    \nframe=  131 fps=0.9 q=42.5 size=       0KiB time=00:00:01.07 bitrate=   0.3kbits/s speed=0.0074x elapsed=0:02:25.36    \nframe=  132 fps=0.9 q=43.9 size=       0KiB time=00:00:01.08 bitrate=   0.3kbits/s speed=0.00742x elapsed=0:02:25.92    \nframe=  132 fps=0.9 q=43.9 size=       0KiB time=00:00:01.08 bitrate=   0.3kbits/s speed=0.00739x elapsed=0:02:26.50    \nframe=  133 fps=0.9 q=44.0 size=       0KiB time=00:00:01.09 bitrate=   0.3kbits/s speed=0.00743x elapsed=0:02:27.02    \nframe=  135 fps=0.9 q=42.7 size=       0KiB time=00:00:01.10 bitrate=   0.3kbits/s speed=0.00751x elapsed=0:02:27.57    \nframe=  135 fps=0.9 q=42.7 size=       0KiB time=00:00:01.10 bitrate=   0.3kbits/s speed=0.00748x elapsed=0:02:28.10    \nframe=  136 fps=0.9 q=44.0 size=       0KiB time=00:00:01.11 bitrate=   0.3kbits/s speed=0.00751x elapsed=0:02:28.66    \nframe=  136 fps=0.9 q=44.0 size=       0KiB time=00:00:01.11 bitrate=   0.3kbits/s speed=0.00748x elapsed=0:02:29.20    \nframe=  136 fps=0.9 q=44.0 size=       0KiB time=00:00:01.11 bitrate=   0.3kbits/s speed=0.00746x elapsed=0:02:29.74    \nframe=  137 fps=0.9 q=44.0 size=       0KiB time=00:00:01.12 bitrate=   0.3kbits/s speed=0.00749x elapsed=0:02:30.28    \nframe=  138 fps=0.9 q=38.2 size=       0KiB time=00:00:01.13 bitrate=   0.3kbits/s speed=0.00751x elapsed=0:02:30.84    \nframe=  139 fps=0.9 q=42.7 size=       0KiB time=00:00:01.14 bitrate=   0.3kbits/s speed=0.00754x elapsed=0:02:31.37    \nframe=  139 fps=0.9 q=42.7 size=       0KiB time=00:00:01.14 bitrate=   0.3kbits/s speed=0.00751x elapsed=0:02:31.92    \nframe=  140 fps=0.9 q=43.9 size=       0KiB time=00:00:01.15 bitrate=   0.3kbits/s speed=0.00754x elapsed=0:02:32.45    \nframe=  141 fps=0.9 q=44.0 size=       0KiB time=00:00:01.15 bitrate=   0.3kbits/s speed=0.00757x elapsed=0:02:32.98    \nframe=  141 fps=0.9 q=44.0 size=       0KiB time=00:00:01.15 bitrate=   0.3kbits/s speed=0.00754x elapsed=0:02:33.54    \nframe=  142 fps=0.9 q=39.2 size=       0KiB time=00:00:01.16 bitrate=   0.3kbits/s speed=0.00757x elapsed=0:02:34.09    \nframe=  143 fps=0.9 q=42.8 size=       0KiB time=00:00:01.16 bitrate=   0.3kbits/s speed=0.00755x elapsed=0:02:34.62    \nframe=  143 fps=0.9 q=42.8 size=       0KiB time=00:00:01.17 bitrate=   0.3kbits/s speed=0.00757x elapsed=0:02:35.15    \nframe=  144 fps=0.9 q=44.0 size=       0KiB time=00:00:01.18 bitrate=   0.3kbits/s speed=0.0076x elapsed=0:02:35.71    \nframe=  144 fps=0.9 q=44.0 size=       0KiB time=00:00:01.18 bitrate=   0.3kbits/s speed=0.00757x elapsed=0:02:36.31    \nframe=  145 fps=0.9 q=44.0 size=       0KiB time=00:00:01.19 bitrate=   0.3kbits/s speed=0.0076x elapsed=0:02:36.84    \nframe=  146 fps=0.9 q=37.3 size=       0KiB time=00:00:01.20 bitrate=   0.3kbits/s speed=0.00763x elapsed=0:02:37.35    \nframe=  147 fps=0.9 q=42.7 size=       0KiB time=00:00:01.20 bitrate=   0.3kbits/s speed=0.00765x elapsed=0:02:37.86    \nframe=  148 fps=0.9 q=44.0 size=       0KiB time=00:00:01.21 bitrate=   0.3kbits/s speed=0.00768x elapsed=0:02:38.41    \nframe=  148 fps=0.9 q=44.0 size=       0KiB time=00:00:01.21 bitrate=   0.3kbits/s speed=0.00765x elapsed=0:02:38.99    \nframe=  149 fps=0.9 q=44.0 size=       0KiB time=00:00:01.22 bitrate=   0.3kbits/s speed=0.00768x elapsed=0:02:39.53    \nframe=  151 fps=0.9 q=42.8 size=       0KiB time=00:00:01.24 bitrate=   0.3kbits/s speed=0.00776x elapsed=0:02:40.08    \nframe=  151 fps=0.9 q=42.8 size=       0KiB time=00:00:01.24 bitrate=   0.3kbits/s speed=0.00773x elapsed=0:02:40.66    \nframe=  151 fps=0.9 q=42.8 size=       0KiB time=00:00:01.24 bitrate=   0.3kbits/s speed=0.0077x elapsed=0:02:41.19    \nframe=  151 fps=0.9 q=42.8 size=       0KiB time=00:00:01.24 bitrate=   0.3kbits/s speed=0.00768x elapsed=0:02:41.71    \nframe=  152 fps=0.9 q=44.0 size=       0KiB time=00:00:01.25 bitrate=   0.3kbits/s speed=0.0077x elapsed=0:02:42.27    \nframe=  152 fps=0.9 q=44.0 size=       0KiB time=00:00:01.25 bitrate=   0.3kbits/s speed=0.00768x elapsed=0:02:42.80    \nframe=  153 fps=0.9 q=44.0 size=       0KiB time=00:00:01.25 bitrate=   0.3kbits/s speed=0.0077x elapsed=0:02:43.39    \nframe=  153 fps=0.9 q=44.0 size=       0KiB time=00:00:01.25 bitrate=   0.3kbits/s speed=0.00767x elapsed=0:02:44.00    \nframe=  155 fps=0.9 q=42.7 size=       0KiB time=00:00:01.27 bitrate=   0.3kbits/s speed=0.00775x elapsed=0:02:44.54    \nframe=  155 fps=0.9 q=42.7 size=       0KiB time=00:00:01.27 bitrate=   0.3kbits/s speed=0.00772x elapsed=0:02:45.11    \nframe=  155 fps=0.9 q=42.7 size=       0KiB time=00:00:01.27 bitrate=   0.3kbits/s speed=0.0077x elapsed=0:02:45.65    \nframe=  155 fps=0.9 q=42.7 size=       0KiB time=00:00:01.27 bitrate=   0.3kbits/s speed=0.00767x elapsed=0:02:46.19    \nframe=  156 fps=0.9 q=44.0 size=       0KiB time=00:00:01.28 bitrate=   0.3kbits/s speed=0.0077x elapsed=0:02:46.71    \nframe=  156 fps=0.9 q=44.0 size=       0KiB time=00:00:01.28 bitrate=   0.3kbits/s speed=0.00767x elapsed=0:02:47.27    \nframe=  157 fps=0.9 q=44.0 size=       0KiB time=00:00:01.29 bitrate=   0.3kbits/s speed=0.0077x elapsed=0:02:47.83    \nframe=  157 fps=0.9 q=44.0 size=       0KiB time=00:00:01.29 bitrate=   0.3kbits/s speed=0.00767x elapsed=0:02:48.35    \nframe=  159 fps=0.9 q=42.9 size=       0KiB time=00:00:01.30 bitrate=   0.3kbits/s speed=0.0077x elapsed=0:02:48.91    \nframe=  159 fps=0.9 q=42.9 size=       0KiB time=00:00:01.30 bitrate=   0.3kbits/s speed=0.00772x elapsed=0:02:49.46    \nframe=  160 fps=0.9 q=44.0 size=       0KiB time=00:00:01.31 bitrate=   0.3kbits/s speed=0.00775x elapsed=0:02:49.99    \nframe=  161 fps=0.9 q=44.0 size=       0KiB time=00:00:01.32 bitrate=   0.3kbits/s speed=0.00777x elapsed=0:02:50.50    \nframe=  161 fps=0.9 q=44.0 size=       0KiB time=00:00:01.32 bitrate=   0.3kbits/s speed=0.00775x elapsed=0:02:51.07    \nframe=  163 fps=0.9 q=42.9 size=       0KiB time=00:00:01.34 bitrate=   0.3kbits/s speed=0.00782x elapsed=0:02:51.65    \nframe=  163 fps=0.9 q=42.9 size=       0KiB time=00:00:01.34 bitrate=   0.3kbits/s speed=0.00779x elapsed=0:02:52.20    \nframe=  164 fps=0.9 q=44.0 size=       0KiB time=00:00:01.35 bitrate=   0.3kbits/s speed=0.00782x elapsed=0:02:52.73    \nframe=  164 fps=0.9 q=44.0 size=       0KiB time=00:00:01.35 bitrate=   0.3kbits/s speed=0.00779x elapsed=0:02:53.29    \nframe=  165 fps=0.9 q=44.0 size=       0KiB time=00:00:01.35 bitrate=   0.3kbits/s speed=0.00781x elapsed=0:02:53.82    \nframe=  166 fps=1.0 q=38.2 size=       0KiB time=00:00:01.36 bitrate=   0.3kbits/s speed=0.00784x elapsed=0:02:54.40    \nframe=  167 fps=1.0 q=42.9 size=       0KiB time=00:00:01.37 bitrate=   0.3kbits/s speed=0.00786x elapsed=0:02:54.94    \nframe=  168 fps=1.0 q=44.0 size=       0KiB time=00:00:01.38 bitrate=   0.3kbits/s speed=0.00788x elapsed=0:02:55.48    \nframe=  169 fps=1.0 q=43.9 size=       0KiB time=00:00:01.39 bitrate=   0.3kbits/s speed=0.0079x elapsed=0:02:56.05    \nframe=  169 fps=1.0 q=43.9 size=       0KiB time=00:00:01.39 bitrate=   0.3kbits/s speed=0.00788x elapsed=0:02:56.62    \nframe=  169 fps=1.0 q=43.9 size=       0KiB time=00:00:01.39 bitrate=   0.3kbits/s speed=0.00785x elapsed=0:02:57.17    \nframe=  169 fps=1.0 q=43.9 size=       0KiB time=00:00:01.39 bitrate=   0.3kbits/s speed=0.00783x elapsed=0:02:57.72    \nframe=  170 fps=1.0 q=44.0 size=       0KiB time=00:00:01.40 bitrate=   0.3kbits/s speed=0.00785x elapsed=0:02:58.26    \nframe=  171 fps=1.0 q=38.8 size=       0KiB time=00:00:01.40 bitrate=   0.2kbits/s speed=0.00788x elapsed=0:02:58.80    \nframe=  172 fps=1.0 q=42.7 size=       0KiB time=00:00:01.41 bitrate=   0.2kbits/s speed=0.0079x elapsed=0:02:59.32    \nframe=  173 fps=1.0 q=44.0 size=       0KiB time=00:00:01.42 bitrate=   0.2kbits/s speed=0.00792x elapsed=0:02:59.91    \nframe=  174 fps=1.0 q=44.0 size=       0KiB time=00:00:01.43 bitrate=   0.2kbits/s speed=0.00794x elapsed=0:03:00.46    \nframe=  175 fps=1.0 q=38.1 size=       0KiB time=00:00:01.44 bitrate=   0.2kbits/s speed=0.00796x elapsed=0:03:01.04    \nframe=  176 fps=1.0 q=42.6 size=       0KiB time=00:00:01.45 bitrate=   0.2kbits/s speed=0.00799x elapsed=0:03:01.58    \nframe=  176 fps=1.0 q=42.6 size=       0KiB time=00:00:01.45 bitrate=   0.2kbits/s speed=0.00796x elapsed=0:03:02.10    \nframe=  177 fps=1.0 q=44.0 size=       0KiB time=00:00:01.45 bitrate=   0.2kbits/s speed=0.00798x elapsed=0:03:02.63    \nframe=  177 fps=1.0 q=44.0 size=       0KiB time=00:00:01.45 bitrate=   0.2kbits/s speed=0.00796x elapsed=0:03:03.22    \nframe=  177 fps=1.0 q=44.0 size=       0KiB time=00:00:01.45 bitrate=   0.2kbits/s speed=0.00794x elapsed=0:03:03.75    \nframe=  177 fps=1.0 q=44.0 size=       0KiB time=00:00:01.45 bitrate=   0.2kbits/s speed=0.00791x elapsed=0:03:04.30    \nframe=  177 fps=1.0 q=44.0 size=       0KiB time=00:00:01.45 bitrate=   0.2kbits/s speed=0.00789x elapsed=0:03:04.85    \nframe=  178 fps=1.0 q=44.0 size=       0KiB time=00:00:01.46 bitrate=   0.2kbits/s speed=0.00791x elapsed=0:03:05.47    \nframe=  178 fps=1.0 q=44.0 size=       0KiB time=00:00:01.46 bitrate=   0.2kbits/s speed=0.00788x elapsed=0:03:06.02    \nframe=  179 fps=1.0 q=39.2 size=       0KiB time=00:00:01.47 bitrate=   0.2kbits/s speed=0.00791x elapsed=0:03:06.58    \nframe=  179 fps=1.0 q=39.2 size=       0KiB time=00:00:01.47 bitrate=   0.2kbits/s speed=0.00788x elapsed=0:03:07.11    \nframe=  179 fps=1.0 q=39.2 size=       0KiB time=00:00:01.47 bitrate=   0.2kbits/s speed=0.00786x elapsed=0:03:07.68    \nframe=  181 fps=1.0 q=44.0 size=     256KiB time=00:00:01.48 bitrate=1414.0kbits/s speed=0.00788x elapsed=0:03:08.20    \nframe=  181 fps=1.0 q=44.0 size=     256KiB time=00:00:01.49 bitrate=1406.1kbits/s speed=0.0079x elapsed=0:03:08.76    \nframe=  181 fps=1.0 q=44.0 size=     256KiB time=00:00:01.49 bitrate=1406.1kbits/s speed=0.00788x elapsed=0:03:09.34    \nframe=  183 fps=1.0 q=38.5 size=     256KiB time=00:00:01.50 bitrate=1390.6kbits/s speed=0.00794x elapsed=0:03:09.88    \nframe=  184 fps=1.0 q=42.8 size=     256KiB time=00:00:01.51 bitrate=1383.0kbits/s speed=0.00797x elapsed=0:03:10.40    \nframe=  185 fps=1.0 q=44.0 size=     256KiB time=00:00:01.52 bitrate=1375.4kbits/s speed=0.00799x elapsed=0:03:10.92    \nframe=  186 fps=1.0 q=44.0 size=     256KiB time=00:00:01.53 bitrate=1367.9kbits/s speed=0.00801x elapsed=0:03:11.46    \nframe=  187 fps=1.0 q=38.3 size=     256KiB time=00:00:01.54 bitrate=1360.5kbits/s speed=0.00803x elapsed=0:03:11.98    \nframe=  188 fps=1.0 q=42.7 size=     256KiB time=00:00:01.55 bitrate=1353.2kbits/s speed=0.00805x elapsed=0:03:12.52    \nframe=  190 fps=1.0 q=44.0 size=     256KiB time=00:00:01.56 bitrate=1338.8kbits/s speed=0.00811x elapsed=0:03:13.06    \nframe=  191 fps=1.0 q=37.9 size=     256KiB time=00:00:01.57 bitrate=1331.7kbits/s speed=0.00814x elapsed=0:03:13.57    \nframe=  192 fps=1.0 q=42.6 size=     256KiB time=00:00:01.58 bitrate=1324.7kbits/s speed=0.00816x elapsed=0:03:14.09    \nframe=  193 fps=1.0 q=44.0 size=     256KiB time=00:00:01.59 bitrate=1317.8kbits/s speed=0.00818x elapsed=0:03:14.60    \nframe=  195 fps=1.0 q=38.5 size=     256KiB time=00:00:01.60 bitrate=1304.1kbits/s speed=0.00824x elapsed=0:03:15.14    \nframe=  196 fps=1.0 q=42.8 size=     256KiB time=00:00:01.61 bitrate=1297.4kbits/s speed=0.00826x elapsed=0:03:15.67    \nframe=  197 fps=1.0 q=44.0 size=     256KiB time=00:00:01.62 bitrate=1290.8kbits/s speed=0.00828x elapsed=0:03:16.21    \nframe=  198 fps=1.0 q=44.0 size=     256KiB time=00:00:01.62 bitrate=1290.8kbits/s speed=0.00826x elapsed=0:03:16.73    \nframe=  200 fps=1.0 q=42.5 size=     256KiB time=00:00:01.65 bitrate=1271.2kbits/s speed=0.00836x elapsed=0:03:17.26    \nframe=  201 fps=1.0 q=44.0 size=     256KiB time=00:00:01.65 bitrate=1264.8kbits/s speed=0.00838x elapsed=0:03:17.78    \nframe=  202 fps=1.0 q=44.0 size=     256KiB time=00:00:01.66 bitrate=1258.5kbits/s speed=0.0084x elapsed=0:03:18.32    \nframe=  203 fps=1.0 q=38.9 size=     256KiB time=00:00:01.67 bitrate=1252.2kbits/s speed=0.00842x elapsed=0:03:18.85    \nframe=  203 fps=1.0 q=38.9 size=     256KiB time=00:00:01.67 bitrate=1252.2kbits/s speed=0.0084x elapsed=0:03:19.35    \nframe=  205 fps=1.0 q=44.0 size=     256KiB time=00:00:01.69 bitrate=1239.9kbits/s speed=0.00846x elapsed=0:03:19.88    \nframe=  205 fps=1.0 q=44.0 size=     256KiB time=00:00:01.69 bitrate=1239.9kbits/s speed=0.00844x elapsed=0:03:20.38    \nframe=  208 fps=1.0 q=42.4 size=     256KiB time=00:00:01.71 bitrate=1221.8kbits/s speed=0.00854x elapsed=0:03:20.90    \nframe=  209 fps=1.0 q=44.0 size=     256KiB time=00:00:01.72 bitrate=1215.9kbits/s speed=0.00856x elapsed=0:03:21.44    \nframe=  210 fps=1.0 q=44.0 size=     256KiB time=00:00:01.73 bitrate=1210.1kbits/s speed=0.00858x elapsed=0:03:21.96    \nframe=  212 fps=1.0 q=42.8 size=     256KiB time=00:00:01.75 bitrate=1198.6kbits/s speed=0.00864x elapsed=0:03:22.47    \nframe=  213 fps=1.0 q=44.0 size=     256KiB time=00:00:01.75 bitrate=1192.9kbits/s speed=0.00866x elapsed=0:03:22.99    \nframe=  214 fps=1.1 q=44.0 size=     256KiB time=00:00:01.76 bitrate=1187.3kbits/s speed=0.00868x elapsed=0:03:23.51    \nframe=  215 fps=1.1 q=38.1 size=     256KiB time=00:00:01.77 bitrate=1181.7kbits/s speed=0.0087x elapsed=0:03:24.05    \nframe=  217 fps=1.1 q=44.0 size=     256KiB time=00:00:01.79 bitrate=1170.7kbits/s speed=0.00876x elapsed=0:03:24.59    \nframe=  217 fps=1.1 q=44.0 size=     256KiB time=00:00:01.79 bitrate=1170.7kbits/s speed=0.00874x elapsed=0:03:25.10    \nframe=  218 fps=1.1 q=44.0 size=     256KiB time=00:00:01.80 bitrate=1165.3kbits/s speed=0.00875x elapsed=0:03:25.62    \nframe=  219 fps=1.1 q=39.5 size=     256KiB time=00:00:01.80 bitrate=1159.9kbits/s speed=0.00877x elapsed=0:03:26.13    \nframe=  221 fps=1.1 q=44.0 size=     256KiB time=00:00:01.82 bitrate=1149.3kbits/s speed=0.00883x elapsed=0:03:26.65    \nframe=  221 fps=1.1 q=44.0 size=     256KiB time=00:00:01.82 bitrate=1149.3kbits/s speed=0.00881x elapsed=0:03:27.17    \nframe=  223 fps=1.1 q=38.7 size=     256KiB time=00:00:01.84 bitrate=1138.9kbits/s speed=0.00887x elapsed=0:03:27.69    \nframe=  225 fps=1.1 q=44.0 size=     256KiB time=00:00:01.85 bitrate=1128.7kbits/s speed=0.00892x elapsed=0:03:28.22    \nframe=  226 fps=1.1 q=44.0 size=     256KiB time=00:00:01.86 bitrate=1123.7kbits/s speed=0.00894x elapsed=0:03:28.74    \nframe=  227 fps=1.1 q=39.2 size=     256KiB time=00:00:01.87 bitrate=1118.7kbits/s speed=0.00896x elapsed=0:03:29.26    \nframe=  229 fps=1.1 q=44.0 size=     256KiB time=00:00:01.89 bitrate=1108.8kbits/s speed=0.00902x elapsed=0:03:29.79    \nframe=  229 fps=1.1 q=44.0 size=     256KiB time=00:00:01.89 bitrate=1108.8kbits/s speed=0.00899x elapsed=0:03:30.32    \nframe=  230 fps=1.1 q=44.0 size=     256KiB time=00:00:01.90 bitrate=1103.9kbits/s speed=0.00901x elapsed=0:03:30.84    \nframe=  233 fps=1.1 q=44.0 size=     256KiB time=00:00:01.92 bitrate=1089.6kbits/s speed=0.00911x elapsed=0:03:31.40    \nframe=  234 fps=1.1 q=45.0 size=     256KiB time=00:00:01.93 bitrate=1084.9kbits/s speed=0.00912x elapsed=0:03:31.93    \nframe=  234 fps=1.1 q=45.0 size=     256KiB time=00:00:01.93 bitrate=1084.9kbits/s speed=0.0091x elapsed=0:03:32.46    \nframe=  236 fps=1.1 q=43.6 size=     256KiB time=00:00:01.95 bitrate=1075.6kbits/s speed=0.00915x elapsed=0:03:33.01    \nframe=  237 fps=1.1 q=44.0 size=     256KiB time=00:00:01.95 bitrate=1071.1kbits/s speed=0.00917x elapsed=0:03:33.55    \nframe=  238 fps=1.1 q=45.0 size=     256KiB time=00:00:01.96 bitrate=1066.5kbits/s speed=0.00919x elapsed=0:03:34.07    \nframe=  240 fps=1.1 q=43.7 size=     256KiB time=00:00:01.98 bitrate=1057.6kbits/s speed=0.00924x elapsed=0:03:34.61    \nframe=  242 fps=1.1 q=45.0 size=     256KiB time=00:00:02.00 bitrate=1048.8kbits/s speed=0.0093x elapsed=0:03:35.15    \nframe=  242 fps=1.1 q=45.0 size=     256KiB time=00:00:02.00 bitrate=1048.8kbits/s speed=0.00927x elapsed=0:03:35.68    \nframe=  245 fps=1.1 q=44.0 size=     256KiB time=00:00:02.02 bitrate=1035.8kbits/s speed=0.00937x elapsed=0:03:36.19    \nframe=  246 fps=1.1 q=45.0 size=     256KiB time=00:00:02.03 bitrate=1031.6kbits/s speed=0.00938x elapsed=0:03:36.71    \nframe=  246 fps=1.1 q=45.0 size=     256KiB time=00:00:02.03 bitrate=1031.6kbits/s speed=0.00936x elapsed=0:03:37.24    \nframe=  247 fps=1.1 q=39.3 size=     256KiB time=00:00:02.04 bitrate=1027.3kbits/s speed=0.00938x elapsed=0:03:37.75    \nframe=  248 fps=1.1 q=43.7 size=     256KiB time=00:00:02.05 bitrate=1023.2kbits/s speed=0.00939x elapsed=0:03:38.27    \nframe=  248 fps=1.1 q=43.7 size=     256KiB time=00:00:02.05 bitrate=1023.2kbits/s speed=0.00937x elapsed=0:03:38.82    \nframe=  250 fps=1.1 q=45.0 size=     256KiB time=00:00:02.06 bitrate=1014.9kbits/s speed=0.00942x elapsed=0:03:39.34    \nframe=  250 fps=1.1 q=45.0 size=     256KiB time=00:00:02.06 bitrate=1014.9kbits/s speed=0.0094x elapsed=0:03:39.85    \nframe=  250 fps=1.1 q=45.0 size=     256KiB time=00:00:02.06 bitrate=1014.9kbits/s speed=0.00938x elapsed=0:03:40.39    \nframe=  252 fps=1.1 q=40.1 size=     256KiB time=00:00:02.08 bitrate=1006.8kbits/s speed=0.00943x elapsed=0:03:40.92    \nframe=  253 fps=1.1 q=43.9 size=     256KiB time=00:00:02.09 bitrate=1002.8kbits/s speed=0.00944x elapsed=0:03:41.46    \nframe=  254 fps=1.1 q=45.0 size=     256KiB time=00:00:02.10 bitrate= 998.8kbits/s speed=0.00946x elapsed=0:03:42.00    \nframe=  254 fps=1.1 q=45.0 size=     256KiB time=00:00:02.10 bitrate= 998.8kbits/s speed=0.00944x elapsed=0:03:42.50    \nframe=  256 fps=1.1 q=45.0 size=     256KiB time=00:00:02.11 bitrate= 990.9kbits/s speed=0.00949x elapsed=0:03:43.05    \nframe=  258 fps=1.2 q=43.8 size=     256KiB time=00:00:02.13 bitrate= 983.2kbits/s speed=0.00954x elapsed=0:03:43.58    \nframe=  260 fps=1.2 q=45.0 size=     256KiB time=00:00:02.15 bitrate= 975.6kbits/s speed=0.00959x elapsed=0:03:44.10    \nframe=  260 fps=1.2 q=45.0 size=     256KiB time=00:00:02.15 bitrate= 975.6kbits/s speed=0.00957x elapsed=0:03:44.63    \nframe=  261 fps=1.2 q=39.1 size=     256KiB time=00:00:02.15 bitrate= 971.8kbits/s speed=0.00959x elapsed=0:03:45.16    \nframe=  263 fps=1.2 q=45.0 size=     256KiB time=00:00:02.17 bitrate= 964.4kbits/s speed=0.00964x elapsed=0:03:45.69    \nframe=  264 fps=1.2 q=45.0 size=     256KiB time=00:00:02.18 bitrate= 960.7kbits/s speed=0.00965x elapsed=0:03:46.22    \nframe=  264 fps=1.2 q=45.0 size=     256KiB time=00:00:02.18 bitrate= 960.7kbits/s speed=0.00963x elapsed=0:03:46.75    \nframe=  265 fps=1.2 q=39.7 size=     256KiB time=00:00:02.19 bitrate= 957.0kbits/s speed=0.00964x elapsed=0:03:47.27    \nframe=  266 fps=1.2 q=42.1 size=     256KiB time=00:00:02.20 bitrate= 953.4kbits/s speed=0.00966x elapsed=0:03:47.82    \nframe=  269 fps=1.2 q=45.0 size=     256KiB time=00:00:02.22 bitrate= 942.7kbits/s speed=0.00974x elapsed=0:03:48.35    \nframe=  269 fps=1.2 q=45.0 size=     256KiB time=00:00:02.22 bitrate= 942.7kbits/s speed=0.00972x elapsed=0:03:48.89    \nframe=  270 fps=1.2 q=39.1 size=     256KiB time=00:00:02.23 bitrate= 939.2kbits/s speed=0.00973x elapsed=0:03:49.42    \nframe=  271 fps=1.2 q=43.8 size=     256KiB time=00:00:02.24 bitrate= 935.7kbits/s speed=0.00975x elapsed=0:03:49.95    \nframe=  273 fps=1.2 q=45.0 size=     256KiB time=00:00:02.25 bitrate= 928.8kbits/s speed=0.0098x elapsed=0:03:50.50    \nframe=  275 fps=1.2 q=43.6 size=     256KiB time=00:00:02.27 bitrate= 922.0kbits/s speed=0.00985x elapsed=0:03:51.02    \nframe=  277 fps=1.2 q=45.0 size=     256KiB time=00:00:02.29 bitrate= 915.3kbits/s speed=0.0099x elapsed=0:03:51.56    \nframe=  278 fps=1.2 q=39.4 size=     256KiB time=00:00:02.30 bitrate= 912.0kbits/s speed=0.00991x elapsed=0:03:52.08    \nframe=  279 fps=1.2 q=43.7 size=     256KiB time=00:00:02.30 bitrate= 908.7kbits/s speed=0.00992x elapsed=0:03:52.62    \nframe=  281 fps=1.2 q=45.0 size=     256KiB time=00:00:02.32 bitrate= 902.2kbits/s speed=0.00997x elapsed=0:03:53.14    \nframe=  281 fps=1.2 q=45.0 size=     256KiB time=00:00:02.32 bitrate= 902.2kbits/s speed=0.00995x elapsed=0:03:53.66    \nframe=  283 fps=1.2 q=43.9 size=     256KiB time=00:00:02.33 bitrate= 898.9kbits/s speed=0.00996x elapsed=0:03:54.19    \nframe=  285 fps=1.2 q=45.0 size=     256KiB time=00:00:02.35 bitrate= 889.4kbits/s speed=0.01x elapsed=0:03:54.72    \nframe=  285 fps=1.2 q=45.0 size=     256KiB time=00:00:02.35 bitrate= 889.4kbits/s speed=0.01x elapsed=0:03:55.27    \nframe=  287 fps=1.2 q=43.9 size=     256KiB time=00:00:02.37 bitrate= 883.2kbits/s speed=0.0101x elapsed=0:03:55.80    \nframe=  289 fps=1.2 q=45.0 size=     256KiB time=00:00:02.39 bitrate= 877.0kbits/s speed=0.0101x elapsed=0:03:56.32    \nframe=  290 fps=1.2 q=39.7 size=     256KiB time=00:00:02.40 bitrate= 874.0kbits/s speed=0.0101x elapsed=0:03:56.85    \nframe=  292 fps=1.2 q=45.0 size=     256KiB time=00:00:02.41 bitrate= 867.9kbits/s speed=0.0102x elapsed=0:03:57.38    \nframe=  294 fps=1.2 q=39.8 size=     256KiB time=00:00:02.43 bitrate= 862.0kbits/s speed=0.0102x elapsed=0:03:57.90    \nframe=  295 fps=1.2 q=43.9 size=     256KiB time=00:00:02.44 bitrate= 859.0kbits/s speed=0.0102x elapsed=0:03:58.41    \nframe=  297 fps=1.2 q=45.0 size=     256KiB time=00:00:02.45 bitrate= 853.2kbits/s speed=0.0103x elapsed=0:03:58.93    \nframe=  298 fps=1.2 q=40.1 size=     256KiB time=00:00:02.46 bitrate= 850.3kbits/s speed=0.0103x elapsed=0:03:59.45    \nframe=  300 fps=1.3 q=45.0 size=     256KiB time=00:00:02.48 bitrate= 844.6kbits/s speed=0.0103x elapsed=0:03:59.96    \nframe=  301 fps=1.3 q=45.0 size=     256KiB time=00:00:02.49 bitrate= 841.8kbits/s speed=0.0104x elapsed=0:04:00.51    \nframe=  303 fps=1.3 q=43.8 size=     256KiB time=00:00:02.50 bitrate= 836.2kbits/s speed=0.0104x elapsed=0:04:01.04    \nframe=  305 fps=1.3 q=45.0 size=     256KiB time=00:00:02.52 bitrate= 830.7kbits/s speed=0.0105x elapsed=0:04:01.57    \nframe=  306 fps=1.3 q=39.6 size=     256KiB time=00:00:02.53 bitrate= 828.0kbits/s speed=0.0105x elapsed=0:04:02.10    \nframe=  307 fps=1.3 q=43.9 size=     256KiB time=00:00:02.54 bitrate= 825.2kbits/s speed=0.0105x elapsed=0:04:02.61    \nframe=  309 fps=1.3 q=45.0 size=     256KiB time=00:00:02.55 bitrate= 819.9kbits/s speed=0.0105x elapsed=0:04:03.13    \nframe=  310 fps=1.3 q=39.1 size=     256KiB time=00:00:02.56 bitrate= 817.2kbits/s speed=0.0105x elapsed=0:04:03.65    \nframe=  311 fps=1.3 q=43.8 size=     256KiB time=00:00:02.57 bitrate= 814.6kbits/s speed=0.0105x elapsed=0:04:04.19    \nframe=  313 fps=1.3 q=45.0 size=     256KiB time=00:00:02.59 bitrate= 809.3kbits/s speed=0.0106x elapsed=0:04:04.71    \nframe=  314 fps=1.3 q=39.7 size=     256KiB time=00:00:02.60 bitrate= 806.7kbits/s speed=0.0106x elapsed=0:04:05.26    \nframe=  315 fps=1.3 q=43.8 size=     256KiB time=00:00:02.60 bitrate= 804.2kbits/s speed=0.0106x elapsed=0:04:05.81    \nframe=  317 fps=1.3 q=45.0 size=     256KiB time=00:00:02.62 bitrate= 799.0kbits/s speed=0.0107x elapsed=0:04:06.37    \nframe=  317 fps=1.3 q=45.0 size=     256KiB time=00:00:02.62 bitrate= 799.0kbits/s speed=0.0106x elapsed=0:04:06.89    \nframe=  319 fps=1.3 q=43.8 size=     256KiB time=00:00:02.64 bitrate= 794.0kbits/s speed=0.0107x elapsed=0:04:07.43    \nframe=  322 fps=1.3 q=40.0 size=     256KiB time=00:00:02.66 bitrate= 786.6kbits/s speed=0.0108x elapsed=0:04:07.98    \nframe=  323 fps=1.3 q=43.9 size=     256KiB time=00:00:02.67 bitrate= 784.1kbits/s speed=0.0108x elapsed=0:04:08.51    \nframe=  324 fps=1.3 q=45.0 size=     256KiB time=00:00:02.68 bitrate= 781.7kbits/s speed=0.0108x elapsed=0:04:09.05    \nframe=  325 fps=1.3 q=45.0 size=     256KiB time=00:00:02.69 bitrate= 779.3kbits/s speed=0.0108x elapsed=0:04:09.55    \nframe=  327 fps=1.3 q=43.8 size=     256KiB time=00:00:02.70 bitrate= 774.5kbits/s speed=0.0108x elapsed=0:04:10.08    \nframe=  327 fps=1.3 q=43.8 size=     256KiB time=00:00:02.70 bitrate= 774.5kbits/s speed=0.0108x elapsed=0:04:10.59    \nframe=  329 fps=1.3 q=45.0 size=     256KiB time=00:00:02.72 bitrate= 769.7kbits/s speed=0.0109x elapsed=0:04:11.14    \nframe=  332 fps=1.3 q=45.0 size=     256KiB time=00:00:02.75 bitrate= 762.7kbits/s speed=0.0109x elapsed=0:04:11.66    \nframe=  333 fps=1.3 q=44.9 size=     256KiB time=00:00:02.75 bitrate= 760.4kbits/s speed=0.0109x elapsed=0:04:12.19    \nframe=  334 fps=1.3 q=39.2 size=     256KiB time=00:00:02.76 bitrate= 758.1kbits/s speed=0.0109x elapsed=0:04:12.74    \nframe=  335 fps=1.3 q=43.8 size=     256KiB time=00:00:02.77 bitrate= 755.9kbits/s speed=0.011x elapsed=0:04:13.27    \nframe=  337 fps=1.3 q=45.0 size=     256KiB time=00:00:02.79 bitrate= 751.3kbits/s speed=0.011x elapsed=0:04:13.79    \nframe=  338 fps=1.3 q=39.8 size=     256KiB time=00:00:02.80 bitrate= 749.1kbits/s speed=0.011x elapsed=0:04:14.30    \nframe=  339 fps=1.3 q=43.7 size=     512KiB time=00:00:02.80 bitrate=1493.6kbits/s speed=0.011x elapsed=0:04:14.84    \nframe=  340 fps=1.3 q=45.0 size=     512KiB time=00:00:02.81 bitrate=1489.2kbits/s speed=0.011x elapsed=0:04:15.37    \nframe=  342 fps=1.3 q=39.8 size=     512KiB time=00:00:02.83 bitrate=1480.5kbits/s speed=0.0111x elapsed=0:04:15.90    \nframe=  344 fps=1.3 q=45.0 size=     512KiB time=00:00:02.85 bitrate=1471.8kbits/s speed=0.0111x elapsed=0:04:16.44    \nframe=  345 fps=1.3 q=45.0 size=     512KiB time=00:00:02.85 bitrate=1467.5kbits/s speed=0.0111x elapsed=0:04:16.98    \nframe=  345 fps=1.3 q=45.0 size=     512KiB time=00:00:02.85 bitrate=1467.5kbits/s speed=0.0111x elapsed=0:04:17.51    \nframe=  346 fps=1.3 q=39.8 size=     512KiB time=00:00:02.86 bitrate=1463.3kbits/s speed=0.0111x elapsed=0:04:18.02    \nframe=  347 fps=1.3 q=43.9 size=     512KiB time=00:00:02.87 bitrate=1459.0kbits/s speed=0.0111x elapsed=0:04:18.55    \nframe=  348 fps=1.3 q=45.0 size=     512KiB time=00:00:02.88 bitrate=1454.8kbits/s speed=0.0111x elapsed=0:04:19.07    \nframe=  350 fps=1.3 q=39.6 size=     512KiB time=00:00:02.90 bitrate=1446.4kbits/s speed=0.0112x elapsed=0:04:19.58    \nframe=  353 fps=1.4 q=45.0 size=     512KiB time=00:00:02.92 bitrate=1434.1kbits/s speed=0.0112x elapsed=0:04:20.10    \nframe=  353 fps=1.4 q=45.0 size=     512KiB time=00:00:02.92 bitrate=1434.1kbits/s speed=0.0112x elapsed=0:04:20.62    \nframe=  354 fps=1.4 q=39.6 size=     512KiB time=00:00:02.93 bitrate=1430.0kbits/s speed=0.0112x elapsed=0:04:21.15    \nframe=  354 fps=1.4 q=39.6 size=     512KiB time=00:00:02.93 bitrate=1430.0kbits/s speed=0.0112x elapsed=0:04:21.66    \nframe=  355 fps=1.4 q=43.9 size=     512KiB time=00:00:02.94 bitrate=1425.9kbits/s speed=0.0112x elapsed=0:04:22.19    \nframe=  357 fps=1.4 q=45.0 size=     512KiB time=00:00:02.95 bitrate=1417.9kbits/s speed=0.0113x elapsed=0:04:22.73    \nframe=  358 fps=1.4 q=45.0 size=     512KiB time=00:00:02.96 bitrate=1413.9kbits/s speed=0.0113x elapsed=0:04:23.25    \nframe=  359 fps=1.4 q=39.6 size=     512KiB time=00:00:02.97 bitrate=1410.0kbits/s speed=0.0113x elapsed=0:04:23.78    \nframe=  359 fps=1.4 q=39.6 size=     512KiB time=00:00:02.97 bitrate=1410.0kbits/s speed=0.0113x elapsed=0:04:24.31    \nframe=  361 fps=1.4 q=45.0 size=     512KiB time=00:00:02.99 bitrate=1402.1kbits/s speed=0.0113x elapsed=0:04:24.84    \nframe=  363 fps=1.4 q=45.0 size=     512KiB time=00:00:03.00 bitrate=1394.3kbits/s speed=0.0113x elapsed=0:04:25.38    \nframe=  365 fps=1.4 q=43.8 size=     512KiB time=00:00:03.02 bitrate=1386.7kbits/s speed=0.0114x elapsed=0:04:25.91    \nframe=  367 fps=1.4 q=45.0 size=     512KiB time=00:00:03.04 bitrate=1379.1kbits/s speed=0.0114x elapsed=0:04:26.43    \nframe=  369 fps=1.4 q=43.9 size=     512KiB time=00:00:03.05 bitrate=1371.5kbits/s speed=0.0115x elapsed=0:04:26.95    \nframe=  371 fps=1.4 q=45.0 size=     512KiB time=00:00:03.07 bitrate=1364.1kbits/s speed=0.0115x elapsed=0:04:27.48    \nframe=  372 fps=1.4 q=39.5 size=     512KiB time=00:00:03.08 bitrate=1360.4kbits/s speed=0.0115x elapsed=0:04:28.00    \nframe=  375 fps=1.4 q=45.0 size=     512KiB time=00:00:03.10 bitrate=1349.5kbits/s speed=0.0116x elapsed=0:04:28.51    \nframe=  376 fps=1.4 q=40.0 size=     512KiB time=00:00:03.11 bitrate=1345.9kbits/s speed=0.0116x elapsed=0:04:29.03    \nframe=  378 fps=1.4 q=45.0 size=     512KiB time=00:00:03.13 bitrate=1338.7kbits/s speed=0.0116x elapsed=0:04:29.54    \nframe=  380 fps=1.4 q=39.2 size=     512KiB time=00:00:03.15 bitrate=1331.6kbits/s speed=0.0117x elapsed=0:04:30.05    \nframe=  383 fps=1.4 q=45.0 size=     512KiB time=00:00:03.17 bitrate=1321.2kbits/s speed=0.0117x elapsed=0:04:30.58    \nframe=  385 fps=1.4 q=43.8 size=     512KiB time=00:00:03.19 bitrate=1314.3kbits/s speed=0.0118x elapsed=0:04:31.09    \nframe=  387 fps=1.4 q=45.0 size=     512KiB time=00:00:03.20 bitrate=1307.4kbits/s speed=0.0118x elapsed=0:04:31.61    \nframe=  389 fps=1.4 q=43.6 size=     512KiB time=00:00:03.22 bitrate=1300.7kbits/s speed=0.0119x elapsed=0:04:32.13    \nframe=  390 fps=1.4 q=45.0 size=     512KiB time=00:00:03.23 bitrate=1297.3kbits/s speed=0.0119x elapsed=0:04:32.65    \nframe=  393 fps=1.4 q=44.0 size=     512KiB time=00:00:03.25 bitrate=1287.4kbits/s speed=0.0119x elapsed=0:04:33.17    \nframe=  396 fps=1.4 q=45.0 size=     512KiB time=00:00:03.28 bitrate=1277.6kbits/s speed=0.012x elapsed=0:04:33.68    \nframe=  398 fps=1.5 q=43.7 size=     512KiB time=00:00:03.30 bitrate=1271.1kbits/s speed=0.012x elapsed=0:04:34.20    \nframe=  400 fps=1.5 q=45.0 size=     512KiB time=00:00:03.31 bitrate=1264.7kbits/s speed=0.0121x elapsed=0:04:34.71    \nframe=  403 fps=1.5 q=45.0 size=     512KiB time=00:00:03.34 bitrate=1255.3kbits/s speed=0.0121x elapsed=0:04:35.24    \nframe=  405 fps=1.5 q=39.7 size=     512KiB time=00:00:03.35 bitrate=1249.0kbits/s speed=0.0122x elapsed=0:04:35.75    \nframe=  408 fps=1.5 q=44.9 size=     512KiB time=00:00:03.38 bitrate=1239.8kbits/s speed=0.0122x elapsed=0:04:36.27    \nframe=  411 fps=1.5 q=43.8 size=     512KiB time=00:00:03.40 bitrate=1230.7kbits/s speed=0.0123x elapsed=0:04:36.80    \nframe=  413 fps=1.5 q=45.0 size=     512KiB time=00:00:03.42 bitrate=1224.7kbits/s speed=0.0124x elapsed=0:04:37.30    \nframe=  415 fps=1.5 q=43.8 size=     512KiB time=00:00:03.44 bitrate=1218.8kbits/s speed=0.0124x elapsed=0:04:37.84    \nframe=  417 fps=1.5 q=45.0 size=     512KiB time=00:00:03.45 bitrate=1212.9kbits/s speed=0.0124x elapsed=0:04:38.35    \nframe=  419 fps=1.5 q=43.8 size=     512KiB time=00:00:03.47 bitrate=1207.1kbits/s speed=0.0125x elapsed=0:04:38.87    \nframe=  422 fps=1.5 q=39.8 size=     512KiB time=00:00:03.50 bitrate=1198.5kbits/s speed=0.0125x elapsed=0:04:39.39    \nframe=  425 fps=1.5 q=45.0 size=     512KiB time=00:00:03.52 bitrate=1190.0kbits/s speed=0.0126x elapsed=0:04:39.90    \nframe=  426 fps=1.5 q=39.4 size=     512KiB time=00:00:03.53 bitrate=1187.2kbits/s speed=0.0126x elapsed=0:04:40.42    \nframe=  428 fps=1.5 q=45.0 size=     512KiB time=00:00:03.55 bitrate=1181.6kbits/s speed=0.0126x elapsed=0:04:40.93    \nframe=  431 fps=1.5 q=43.8 size=     512KiB time=00:00:03.57 bitrate=1173.3kbits/s speed=0.0127x elapsed=0:04:41.45    \nframe=  433 fps=1.5 q=45.0 size=     512KiB time=00:00:03.59 bitrate=1167.9kbits/s speed=0.0127x elapsed=0:04:41.96    \nframe=  437 fps=1.5 q=45.0 size=     512KiB time=00:00:03.62 bitrate=1157.1kbits/s speed=0.0128x elapsed=0:04:42.48    \nframe=  438 fps=1.5 q=39.3 size=     512KiB time=00:00:03.63 bitrate=1154.5kbits/s speed=0.0128x elapsed=0:04:43.02    \nframe=  440 fps=1.6 q=45.0 size=     512KiB time=00:00:03.65 bitrate=1149.2kbits/s speed=0.0129x elapsed=0:04:43.54    \nframe=  443 fps=1.6 q=43.8 size=     512KiB time=00:00:03.67 bitrate=1141.4kbits/s speed=0.0129x elapsed=0:04:44.06    \nframe=  446 fps=1.6 q=39.6 size=     512KiB time=00:00:03.70 bitrate=1133.7kbits/s speed=0.013x elapsed=0:04:44.60    \nframe=  449 fps=1.6 q=45.0 size=     512KiB time=00:00:03.72 bitrate=1126.1kbits/s speed=0.0131x elapsed=0:04:45.17    \nframe=  451 fps=1.6 q=43.7 size=     512KiB time=00:00:03.74 bitrate=1121.1kbits/s speed=0.0131x elapsed=0:04:45.69    \nframe=  454 fps=1.6 q=39.4 size=     512KiB time=00:00:03.76 bitrate=1113.6kbits/s speed=0.0132x elapsed=0:04:46.19    \nframe=  456 fps=1.6 q=45.0 size=     512KiB time=00:00:03.78 bitrate=1108.7kbits/s speed=0.0132x elapsed=0:04:46.72    \nframe=  459 fps=1.6 q=43.8 size=     512KiB time=00:00:03.80 bitrate=1101.4kbits/s speed=0.0133x elapsed=0:04:47.24    \nframe=  461 fps=1.6 q=45.0 size=     512KiB time=00:00:03.82 bitrate=1096.6kbits/s speed=0.0133x elapsed=0:04:47.76    \nframe=  463 fps=1.6 q=43.8 size=     512KiB time=00:00:03.84 bitrate=1091.9kbits/s speed=0.0133x elapsed=0:04:48.27    \nframe=  466 fps=1.6 q=39.4 size=     512KiB time=00:00:03.86 bitrate=1084.8kbits/s speed=0.0134x elapsed=0:04:48.79    \nframe=  469 fps=1.6 q=45.0 size=     512KiB time=00:00:03.89 bitrate=1077.9kbits/s speed=0.0135x elapsed=0:04:49.30    \nframe=  472 fps=1.6 q=45.0 size=     512KiB time=00:00:03.91 bitrate=1071.0kbits/s speed=0.0135x elapsed=0:04:49.82    \nframe=  474 fps=1.6 q=39.3 size=     512KiB time=00:00:03.93 bitrate=1066.4kbits/s speed=0.0135x elapsed=0:04:50.34    \nframe=  476 fps=1.6 q=45.0 size=     512KiB time=00:00:03.95 bitrate=1061.9kbits/s speed=0.0136x elapsed=0:04:50.86    \nframe=  479 fps=1.6 q=43.9 size=     512KiB time=00:00:03.97 bitrate=1055.3kbits/s speed=0.0136x elapsed=0:04:51.39    \nframe=  479 fps=1.6 q=43.9 size=     512KiB time=00:00:03.97 bitrate=1055.3kbits/s speed=0.0136x elapsed=0:04:51.91    \nframe=  482 fps=1.6 q=39.5 size=     512KiB time=00:00:04.00 bitrate=1048.7kbits/s speed=0.0137x elapsed=0:04:52.41    \nframe=  485 fps=1.7 q=45.0 size=     512KiB time=00:00:04.02 bitrate=1042.2kbits/s speed=0.0137x elapsed=0:04:52.93    \nframe=  487 fps=1.7 q=43.9 size=     512KiB time=00:00:04.04 bitrate=1037.9kbits/s speed=0.0138x elapsed=0:04:53.44    \nframe=  489 fps=1.7 q=45.0 size=     512KiB time=00:00:04.05 bitrate=1033.6kbits/s speed=0.0138x elapsed=0:04:53.96    \nframe=  490 fps=1.7 q=39.4 size=     512KiB time=00:00:04.06 bitrate=1031.5kbits/s speed=0.0138x elapsed=0:04:54.49    \nframe=  493 fps=1.7 q=45.0 size=     512KiB time=00:00:04.09 bitrate=1025.2kbits/s speed=0.0139x elapsed=0:04:55.01    \nframe=  495 fps=1.7 q=43.9 size=     512KiB time=00:00:04.10 bitrate=1021.0kbits/s speed=0.0139x elapsed=0:04:55.53    \nframe=  497 fps=1.7 q=45.0 size=     512KiB time=00:00:04.12 bitrate=1016.9kbits/s speed=0.0139x elapsed=0:04:56.04    \nframe=  499 fps=1.7 q=43.8 size=     768KiB time=00:00:04.14 bitrate=1519.1kbits/s speed=0.014x elapsed=0:04:56.56    \nframe=  502 fps=1.7 q=40.2 size=     768KiB time=00:00:04.16 bitrate=1510.0kbits/s speed=0.014x elapsed=0:04:57.07    \nframe=  505 fps=1.7 q=45.0 size=     768KiB time=00:00:04.19 bitrate=1501.0kbits/s speed=0.0141x elapsed=0:04:57.59    \nframe=  506 fps=1.7 q=39.4 size=     768KiB time=00:00:04.20 bitrate=1498.0kbits/s speed=0.0141x elapsed=0:04:58.10    \nframe=  509 fps=1.7 q=45.0 size=     768KiB time=00:00:04.22 bitrate=1489.2kbits/s speed=0.0141x elapsed=0:04:58.62    \nframe=  511 fps=1.7 q=43.8 size=     768KiB time=00:00:04.24 bitrate=1483.3kbits/s speed=0.0142x elapsed=0:04:59.14    \nframe=  514 fps=1.7 q=39.8 size=     768KiB time=00:00:04.26 bitrate=1474.6kbits/s speed=0.0142x elapsed=0:04:59.66    \nframe=  517 fps=1.7 q=45.0 size=     768KiB time=00:00:04.29 bitrate=1466.1kbits/s speed=0.0143x elapsed=0:05:00.18    \nframe=  518 fps=1.7 q=39.6 size=     768KiB time=00:00:04.30 bitrate=1463.2kbits/s speed=0.0143x elapsed=0:05:00.69    \nframe=  520 fps=1.7 q=45.0 size=     768KiB time=00:00:04.31 bitrate=1457.6kbits/s speed=0.0143x elapsed=0:05:01.21    \nframe=  522 fps=1.7 q=39.8 size=     768KiB time=00:00:04.33 bitrate=1452.0kbits/s speed=0.0144x elapsed=0:05:01.74    \nframe=  525 fps=1.7 q=45.0 size=     768KiB time=00:00:04.35 bitrate=1443.6kbits/s speed=0.0144x elapsed=0:05:02.24    \nframe=  527 fps=1.7 q=43.8 size=     768KiB time=00:00:04.37 bitrate=1438.1kbits/s speed=0.0144x elapsed=0:05:02.77    \nframe=  530 fps=1.7 q=39.8 size=     768KiB time=00:00:04.40 bitrate=1430.0kbits/s speed=0.0145x elapsed=0:05:03.27    \nframe=  532 fps=1.8 q=45.0 size=     768KiB time=00:00:04.41 bitrate=1424.6kbits/s speed=0.0145x elapsed=0:05:03.79    \nframe=  534 fps=1.8 q=39.5 size=     768KiB time=00:00:04.43 bitrate=1419.2kbits/s speed=0.0146x elapsed=0:05:04.30    \nframe=  536 fps=1.8 q=45.0 size=     768KiB time=00:00:04.45 bitrate=1413.9kbits/s speed=0.0146x elapsed=0:05:04.82    \nframe=  538 fps=1.8 q=39.6 size=     768KiB time=00:00:04.46 bitrate=1408.6kbits/s speed=0.0146x elapsed=0:05:05.34    \nframe=  541 fps=1.8 q=45.0 size=     768KiB time=00:00:04.49 bitrate=1400.8kbits/s speed=0.0147x elapsed=0:05:05.85    \nframe=  543 fps=1.8 q=43.8 size=     768KiB time=00:00:04.50 bitrate=1395.6kbits/s speed=0.0147x elapsed=0:05:06.37    \nframe=  546 fps=1.8 q=38.9 size=     768KiB time=00:00:04.53 bitrate=1387.9kbits/s speed=0.0148x elapsed=0:05:06.88    \nframe=  548 fps=1.8 q=45.0 size=     768KiB time=00:00:04.55 bitrate=1382.8kbits/s speed=0.0148x elapsed=0:05:07.40    \nframe=  551 fps=1.8 q=43.8 size=     768KiB time=00:00:04.57 bitrate=1375.3kbits/s speed=0.0149x elapsed=0:05:07.92    \nframe=  553 fps=1.8 q=45.0 size=     768KiB time=00:00:04.59 bitrate=1370.3kbits/s speed=0.0149x elapsed=0:05:08.43    \nframe=  556 fps=1.8 q=45.0 size=     768KiB time=00:00:04.61 bitrate=1362.8kbits/s speed=0.0149x elapsed=0:05:08.95    \nframe=  558 fps=1.8 q=39.3 size=     768KiB time=00:00:04.63 bitrate=1357.9kbits/s speed=0.015x elapsed=0:05:09.46    \nframe=  561 fps=1.8 q=45.0 size=     768KiB time=00:00:04.65 bitrate=1350.7kbits/s speed=0.015x elapsed=0:05:09.98    \nframe=  563 fps=1.8 q=43.9 size=     768KiB time=00:00:04.67 bitrate=1345.8kbits/s speed=0.0151x elapsed=0:05:10.50    \nframe=  565 fps=1.8 q=45.0 size=     768KiB time=00:00:04.69 bitrate=1341.1kbits/s speed=0.0151x elapsed=0:05:11.01    \nframe=  568 fps=1.8 q=45.0 size=     768KiB time=00:00:04.71 bitrate=1334.0kbits/s speed=0.0151x elapsed=0:05:11.53    \nframe=  570 fps=1.8 q=39.7 size=     768KiB time=00:00:04.73 bitrate=1329.3kbits/s speed=0.0152x elapsed=0:05:12.06    \nframe=  573 fps=1.8 q=45.0 size=     768KiB time=00:00:04.75 bitrate=1322.3kbits/s speed=0.0152x elapsed=0:05:12.58    \nframe=  574 fps=1.8 q=39.8 size=     768KiB time=00:00:04.76 bitrate=1320.0kbits/s speed=0.0152x elapsed=0:05:13.08    \nframe=  576 fps=1.8 q=45.0 size=     768KiB time=00:00:04.78 bitrate=1315.4kbits/s speed=0.0153x elapsed=0:05:13.60    \nframe=  579 fps=1.8 q=43.9 size=     768KiB time=00:00:04.80 bitrate=1308.5kbits/s speed=0.0153x elapsed=0:05:14.13    \nframe=  580 fps=1.8 q=45.0 size=     768KiB time=00:00:04.81 bitrate=1306.3kbits/s speed=0.0153x elapsed=0:05:14.65    \nframe=  584 fps=1.9 q=45.0 size=     768KiB time=00:00:04.85 bitrate=1297.3kbits/s speed=0.0154x elapsed=0:05:15.17    \nframe=  587 fps=1.9 q=45.0 size=     768KiB time=00:00:04.87 bitrate=1290.6kbits/s speed=0.0154x elapsed=0:05:15.68    \nframe=  589 fps=1.9 q=39.7 size=     768KiB time=00:00:04.89 bitrate=1286.2kbits/s speed=0.0155x elapsed=0:05:16.20    \nframe=  592 fps=1.9 q=45.0 size=     768KiB time=00:00:04.91 bitrate=1279.7kbits/s speed=0.0155x elapsed=0:05:16.72    \nframe=  594 fps=1.9 q=43.9 size=     768KiB time=00:00:04.93 bitrate=1275.4kbits/s speed=0.0156x elapsed=0:05:17.25    \nframe=  596 fps=1.9 q=45.0 size=     768KiB time=00:00:04.95 bitrate=1271.1kbits/s speed=0.0156x elapsed=0:05:17.77    \nframe=  598 fps=1.9 q=43.6 size=     768KiB time=00:00:04.96 bitrate=1266.8kbits/s speed=0.0156x elapsed=0:05:18.27    \n[mp4 @ 000002b396ad9bc0] Starting second pass: moving the moov atom to the beginning of the file\n[out#0/mp4 @ 000002b396ad9ac0] video:916KiB audio:0KiB subtitle:0KiB other streams:0KiB global headers:2KiB muxing overhead: 1.182586%\nframe=  600 fps=1.9 q=45.0 Lsize=     927KiB time=00:00:04.98 bitrate=1523.4kbits/s speed=0.0157x elapsed=0:05:18.31    \nx265 [info]: frame I:      3, Avg QP:39.74  kb/s: 14196.48\nx265 [info]: frame P:    146, Avg QP:39.36  kb/s: 4872.78 \nx265 [info]: frame B:    451, Avg QP:44.46  kb/s: 319.35  \nx265 [info]: Weighted P-Frames: Y:0.0% UV:0.0%\n\nencoded 600 frames in 317.41s (1.89 fps), 1496.74 kb/s, Avg QP:43.19\n",
  "seconds": 318.6080515384674,
  "probe_out": {}
}